<svg width="17" height="17" viewBox="0 0 17 17" fill="none" xmlns="http://www.w3.org/2000/svg">
<mask id="mask0_1105_67750" style="mask-type:alpha" maskUnits="userSpaceOnUse" x="3" y="2" width="11" height="12">
<path d="M7.89668 3.62565L7.89668 11.0723L4.64334 7.81898C4.38334 7.55898 3.95668 7.55898 3.69668 7.81898C3.43668 8.07898 3.43668 8.49898 3.69668 8.75898L8.09001 13.1523C8.35001 13.4123 8.77001 13.4123 9.03001 13.1523L13.43 8.76565C13.5548 8.6411 13.625 8.472 13.625 8.29565C13.625 8.11931 13.5548 7.95021 13.43 7.82565C13.17 7.56565 12.75 7.56565 12.49 7.82565L9.23001 11.0723L9.23001 3.62565C9.23001 3.25898 8.93001 2.95898 8.56334 2.95898C8.19668 2.95898 7.89668 3.25898 7.89668 3.62565Z" fill="black"/>
</mask>
<g mask="url(#mask0_1105_67750)">
<rect x="16.5635" y="0.152344" width="16" height="16" transform="rotate(90 16.5635 0.152344)" fill="white"/>
</g>
</svg>
