<svg width="17" height="16" viewBox="0 0 17 16" fill="none" xmlns="http://www.w3.org/2000/svg">
<path d="M13.0885 2H3.75521C3.40159 2 3.06245 2.14048 2.8124 2.39052C2.56235 2.64057 2.42188 2.97971 2.42188 3.33333V12.6667C2.42188 13.0203 2.56235 13.3594 2.8124 13.6095C3.06245 13.8595 3.40159 14 3.75521 14H13.0885C13.4422 14 13.7813 13.8595 14.0314 13.6095C14.2814 13.3594 14.4219 13.0203 14.4219 12.6667V3.33333C14.4219 2.97971 14.2814 2.64057 14.0314 2.39052C13.7813 2.14048 13.4422 2 13.0885 2ZM10.8219 11.3333L8.42188 8.93333L6.02187 11.3333L5.08854 10.4L7.48854 8L5.08854 5.6L6.02187 4.66667L8.42188 7.06667L10.8219 4.66667L11.7552 5.6L9.35521 8L11.7552 10.4L10.8219 11.3333Z" fill="#F47F36"/>
</svg>
