<svg width="16" height="16" viewBox="0 0 16 16" fill="none" xmlns="http://www.w3.org/2000/svg">
<path d="M11.9998 12.3327C12.5532 12.3327 12.9998 11.886 12.9998 11.3327C12.9998 10.7793 12.5532 10.3327 11.9998 10.3327C11.4465 10.3327 10.9998 10.7793 10.9998 11.3327C10.9998 11.886 11.4465 12.3327 11.9998 12.3327ZM12.9998 6.33268H11.3332V7.99935H14.3065L12.9998 6.33268ZM3.99984 12.3327C4.55317 12.3327 4.99984 11.886 4.99984 11.3327C4.99984 10.7793 4.55317 10.3327 3.99984 10.3327C3.4465 10.3327 2.99984 10.7793 2.99984 11.3327C2.99984 11.886 3.4465 12.3327 3.99984 12.3327ZM13.3332 5.33268L15.3332 7.99935V11.3327H13.9998C13.9998 12.4393 13.1065 13.3327 11.9998 13.3327C10.8932 13.3327 9.99984 12.4393 9.99984 11.3327H5.99984C5.99984 12.4393 5.1065 13.3327 3.99984 13.3327C2.89317 13.3327 1.99984 12.4393 1.99984 11.3327H0.666504V3.99935C0.666504 3.25935 1.25984 2.66602 1.99984 2.66602H11.3332V5.33268H13.3332ZM1.99984 3.99935V9.99935H2.5065C2.87317 9.59268 3.4065 9.33268 3.99984 9.33268C4.59317 9.33268 5.1265 9.59268 5.49317 9.99935H9.99984V3.99935H1.99984ZM6.6665 4.66602L8.99984 6.99935L6.6665 9.33268V7.66602H3.33317V6.33268H6.6665V4.66602Z" fill="#EE704B"/>
</svg>
