<svg width="17" height="16" viewBox="0 0 17 16" fill="none" xmlns="http://www.w3.org/2000/svg">
<g clip-path="url(#clip0_1057_56226)">
<path d="M12.3162 12.3327C12.8696 12.3327 13.3162 11.886 13.3162 11.3327C13.3162 10.7793 12.8696 10.3327 12.3162 10.3327C11.7629 10.3327 11.3162 10.7793 11.3162 11.3327C11.3162 11.886 11.7629 12.3327 12.3162 12.3327ZM13.3162 6.33268H11.6496V7.99935H14.6229L13.3162 6.33268ZM4.31624 12.3327C4.86958 12.3327 5.31624 11.886 5.31624 11.3327C5.31624 10.7793 4.86958 10.3327 4.31624 10.3327C3.76291 10.3327 3.31624 10.7793 3.31624 11.3327C3.31624 11.886 3.76291 12.3327 4.31624 12.3327ZM13.6496 5.33268L15.6496 7.99935V11.3327H14.3162C14.3162 12.4393 13.4229 13.3327 12.3162 13.3327C11.2096 13.3327 10.3162 12.4393 10.3162 11.3327H6.31624C6.31624 12.4393 5.42291 13.3327 4.31624 13.3327C3.20958 13.3327 2.31624 12.4393 2.31624 11.3327H0.98291V3.99935C0.98291 3.25935 1.57624 2.66602 2.31624 2.66602H11.6496V5.33268H13.6496ZM2.31624 3.99935V9.99935H2.82291C3.18958 9.59268 3.72291 9.33268 4.31624 9.33268C4.90958 9.33268 5.44291 9.59268 5.80958 9.99935H10.3162V3.99935H2.31624ZM6.98291 4.66602L9.31624 6.99935L6.98291 9.33268V7.66602H3.64958V6.33268H6.98291V4.66602Z" fill="#F47F36"/>
</g>
<defs>
<clipPath id="clip0_1057_56226">
<rect width="16" height="16" fill="white" transform="translate(0.316162)"/>
</clipPath>
</defs>
</svg>
