<svg width="17" height="17" viewBox="0 0 17 17" fill="none" xmlns="http://www.w3.org/2000/svg">
<path d="M8.74772 1.5957C6.16772 1.5957 4.08105 3.68237 4.08105 6.26237C4.08105 9.76237 8.74772 14.929 8.74772 14.929C8.74772 14.929 13.4144 9.76237 13.4144 6.26237C13.4144 3.68237 11.3277 1.5957 8.74772 1.5957ZM8.74772 7.92904C8.30569 7.92904 7.88177 7.75344 7.56921 7.44088C7.25665 7.12832 7.08105 6.7044 7.08105 6.26237C7.08105 5.82034 7.25665 5.39642 7.56921 5.08386C7.88177 4.7713 8.30569 4.5957 8.74772 4.5957C9.18975 4.5957 9.61367 4.7713 9.92623 5.08386C10.2388 5.39642 10.4144 5.82034 10.4144 6.26237C10.4144 6.7044 10.2388 7.12832 9.92623 7.44088C9.61367 7.75344 9.18975 7.92904 8.74772 7.92904Z" fill="#F47F36"/>
</svg>
