<svg width="1924" height="1303" viewBox="0 0 1924 1303" fill="none" xmlns="http://www.w3.org/2000/svg">
<g clip-path="url(#clip0_1710_63416)">
<path d="M1923.36 0H0V1302.17H1923.36V0Z" fill="#1A3C32"/>
<g style="mix-blend-mode:screen" opacity="0.2">
<path d="M1922.88 1036.94C1920.29 1033.31 1916.54 1031.42 1912.7 1029.29C1906.57 1025.9 1902.12 1020.45 1896.76 1016.03C1887.05 1008.03 1878.38 998.644 1868.09 991.406C1858.3 984.512 1850.78 975.186 1840.74 968.53C1830.75 961.909 1819.55 957.566 1809.34 951.325C1798.58 944.74 1788.7 936.766 1777.57 930.786C1764.98 924.035 1750.85 919.657 1737.42 914.91C1723.91 910.141 1710.64 906.118 1696.49 903.781C1682.96 901.538 1669.54 897.931 1655.81 897.207C1641.63 896.46 1627.47 897.575 1613.33 896.045C1606.95 895.356 1600.61 893.992 1594.2 893.458C1590.37 893.138 1586.78 893.387 1583.03 892.283C1580.04 891.393 1577.27 889.827 1574.39 888.664C1565.51 885.093 1553.95 887.027 1546.27 880.727C1538.8 874.616 1532.81 861.647 1532.99 852.013C1533.05 848.536 1535.17 845.427 1534.7 841.939C1533.94 836.315 1529.11 831.545 1526.55 826.704C1520.14 814.566 1521.68 799.473 1517.09 786.647C1513.27 775.98 1505.49 768.351 1496.71 761.516C1486.55 753.602 1477.31 745.617 1469.42 735.33C1461.29 724.746 1458.81 710.092 1453.85 697.883C1453.28 696.495 1452.71 695.106 1452.15 693.718C1448.45 676.964 1443.25 660.614 1437.44 644.442C1432.21 629.883 1424.04 617.152 1412.61 606.651C1407.99 602.415 1403.23 598.321 1398.49 594.24C1387.44 584.748 1377.16 574.543 1369.12 562.322C1363.51 553.803 1358.1 545.141 1352.73 536.468C1350.57 532.968 1348.65 529.313 1346.79 525.635C1342.46 517.104 1339.5 508.157 1338.29 498.618C1337.46 492.044 1336.78 485.459 1336.36 478.85C1335.84 470.627 1335 462.44 1333.22 454.372C1329.7 438.413 1322.63 424.389 1310.68 413.034C1306.92 409.462 1303.05 405.986 1299.22 402.485C1295.13 398.748 1290.95 395.105 1287.59 390.644C1285.24 389.742 1282.79 389.303 1280.31 389.018C1278.05 388.757 1276.19 387.844 1274.87 385.981C1271.68 381.448 1267.86 377.45 1264.36 373.19C1261.1 369.215 1258.65 364.576 1255.9 360.198C1254.57 358.085 1253.37 355.89 1252.12 353.731C1251.21 354.122 1250.3 354.49 1249.4 354.882C1248.5 355.262 1247.6 355.653 1246.71 356.08C1241.83 358.43 1237.43 361.242 1234.4 366.071C1231.17 371.22 1227.31 375.966 1223.83 380.962C1220.76 385.364 1217.72 389.801 1214.88 394.358C1210.77 400.955 1207.87 408.05 1206.8 415.81C1206.23 419.915 1206.45 424.033 1206.36 428.15C1206.28 432.267 1206.54 436.396 1205.82 440.478C1204.22 449.578 1201.07 458.098 1195.96 465.822C1193.82 469.038 1192.52 472.467 1192.2 476.311C1191.84 480.606 1190.84 484.783 1189.86 488.971C1188.02 496.85 1187.05 504.835 1187.33 512.927C1187.38 514.137 1187.14 515.466 1188.86 516.605C1192 512.334 1196.04 508.834 1199.65 504.918C1200.35 504.159 1200.8 503.103 1201.16 502.106C1202.91 497.218 1204.61 492.317 1206.28 487.405C1207.33 484.356 1208.03 481.164 1209.32 478.233C1213.09 469.702 1216.21 460.945 1219.31 452.165C1220.2 449.638 1221.34 447.194 1222.39 444.737C1223.38 442.436 1224.35 440.146 1224.73 437.618C1225.15 434.913 1226.31 432.493 1228.05 430.381C1229.19 429.004 1230.28 427.568 1231.55 426.311C1236.12 421.778 1238.99 416.308 1240.92 410.233C1241.51 408.37 1242.2 406.46 1243.24 404.835C1245.28 401.678 1245.9 398.261 1245.91 394.619C1245.91 392.649 1245.96 390.679 1246.05 388.71C1246.11 387.452 1246.36 386.242 1247.14 385.174C1248.12 383.845 1250.05 383.382 1251.44 384.248C1252.54 384.937 1253.24 385.957 1253.72 387.155C1254.37 388.852 1254.54 390.62 1254.71 392.412C1255.3 398.285 1254.48 404.229 1255.46 410.091C1255.55 410.601 1255.4 411.159 1255.3 411.681C1253.99 418.183 1253.42 424.804 1252.22 431.306C1251.31 436.278 1250.76 441.202 1250.81 446.221C1250.92 456.14 1249.52 465.822 1246.42 475.291C1243.86 483.145 1244.05 484.344 1246.66 491.949C1247.58 494.655 1248.18 495.046 1251.07 494.109C1258.45 491.712 1265.55 488.781 1270.92 482.849C1271.88 481.793 1272.9 480.772 1273.97 479.823C1275.88 478.126 1277.21 476.204 1277.82 473.594C1278.37 471.185 1279.62 468.931 1280.65 466.653C1280.93 466.036 1281.45 465.478 1281.97 465.027C1282.49 464.564 1283.16 464.968 1283.23 465.419C1283.42 466.641 1283.49 467.898 1283.44 469.132C1283.25 473.606 1282.78 478.079 1282.81 482.54C1282.84 486.04 1281.67 488.841 1279.24 491.166C1277.31 493.029 1275.28 494.785 1273.25 496.541C1272.04 497.597 1270.76 498.582 1269.5 499.591C1268.28 500.564 1267.77 501.797 1267.93 503.352C1268.42 507.979 1268.73 512.63 1269.36 517.234C1270.01 522.028 1270.99 526.738 1274.32 530.618C1275.34 531.805 1275.92 533.407 1276.61 534.854C1279.42 540.834 1281.9 547.004 1287.18 551.418C1287.58 551.75 1287.84 552.26 1288.16 552.688C1294.06 560.803 1299.96 568.907 1305.84 577.035C1306.26 577.617 1306.7 578.21 1306.93 578.874C1307.2 579.622 1306.8 580.227 1306.13 580.642C1305.12 581.247 1304.11 581.342 1303.1 580.701C1301.29 579.551 1299.59 578.174 1297.67 577.261C1292.14 574.638 1286.89 571.779 1282.72 567.068C1280.55 564.624 1277.71 562.631 1274.3 561.373C1273.08 565.656 1273.26 569.785 1273.11 573.867C1273.02 576.015 1273.15 578.174 1272.45 580.251C1270.99 584.522 1270.46 588.96 1270.15 593.433C1269.88 597.384 1268.57 601.133 1267.55 604.942C1267.41 605.452 1267.11 605.891 1266.49 605.963C1265.6 606.069 1265.06 605.441 1264.92 604.812C1264.52 603.068 1264.31 601.288 1264.03 599.52C1263.09 593.872 1261.83 588.248 1261.3 582.564C1260.86 577.889 1259.9 573.369 1258.56 568.931C1257.72 566.131 1257.3 563.378 1257.29 560.495C1257.28 556.556 1257.22 552.616 1257.08 548.677C1257 546.553 1256.29 546.257 1254.29 547.336C1253.5 547.764 1252.75 548.238 1251.99 548.713C1244.21 553.518 1236.44 558.312 1228.68 563.129C1225.64 565.016 1222.29 566.582 1219.72 568.99C1217 571.553 1216.14 575.528 1214.3 578.803C1211.61 583.62 1210.48 588.817 1211.06 594.299C1211.32 596.755 1210.84 598.867 1209.59 600.956C1208.12 603.412 1206.85 605.986 1205.38 608.454C1203.96 610.827 1203.27 613.307 1203.4 616.107C1203.56 619.501 1203.49 622.906 1203.46 626.312C1203.42 629.895 1201.89 632.909 1199.53 635.483C1197.49 637.714 1194.58 638.07 1192.21 636.587C1190.44 635.472 1189.42 633.858 1189.08 631.805C1188.52 628.435 1188.27 625.078 1188.8 621.66C1190.5 610.827 1190.51 599.9 1190.45 588.972C1190.44 586.432 1189.66 584.546 1187.71 582.932C1184.96 580.642 1182.42 578.103 1179.63 575.849C1177.53 574.14 1176.59 572.099 1176.27 569.429C1175.34 561.61 1174.21 553.815 1173.11 546.019C1173.02 545.426 1173.3 544.512 1172.24 544.418C1171.31 544.845 1171.04 545.723 1170.65 546.506C1167.14 553.554 1163.54 560.566 1160.13 567.662C1158.1 571.874 1155.77 575.884 1152.77 579.479C1149.87 582.944 1147.65 586.777 1145.76 590.882C1141.31 600.505 1135.85 609.522 1128.95 617.65C1126.3 620.794 1123.81 624.069 1121.27 627.32C1119.27 629.883 1116.97 632.137 1114.44 634.143C1113.47 634.914 1112.4 635.614 1111.26 636.1C1109.66 636.789 1108.1 636.539 1106.8 635.27C1105.7 634.166 1105.27 632.837 1105.81 631.342C1106.34 629.824 1106.89 628.293 1107.62 626.869C1110.08 622.076 1113.02 617.602 1116.31 613.331C1120.99 607.232 1125.69 601.122 1129.44 594.358C1133.44 587.156 1136.58 579.503 1141.12 572.598C1141.51 572.004 1141.78 571.328 1142.04 570.664C1144.71 563.758 1148.54 557.529 1153.01 551.655C1153.87 550.516 1154.76 549.353 1155.36 548.072C1157.78 542.828 1161.06 538.153 1164.38 533.478C1165.32 532.161 1166.24 530.82 1166.5 529.183C1167.48 522.989 1169 516.949 1170.74 510.922C1173.13 502.664 1174.2 494.097 1174.21 485.459C1174.21 479.076 1176.45 473.546 1180.5 468.741C1182.68 466.142 1184.99 463.627 1187.47 461.301C1189.61 459.296 1190.56 457.137 1190.24 454.17C1189.76 449.911 1189.49 445.616 1189.31 441.32C1188.83 429.87 1188.41 418.42 1188 406.97C1187.89 403.874 1187.38 400.99 1185.49 398.356C1184.35 396.778 1183.64 394.891 1182.85 393.1C1180.75 388.354 1178.75 383.572 1176.29 378.98C1175.28 377.105 1174.48 375.077 1173.85 373.036C1172.95 370.117 1171.75 367.34 1170.4 364.611C1166.13 355.926 1161.98 347.146 1159.96 337.63C1158.69 331.65 1155.95 326.607 1152.25 321.896C1149.26 318.1 1146.43 314.172 1143.53 310.304C1140.73 306.59 1138.06 302.746 1135.08 299.186C1121.22 282.67 1109.22 264.896 1098.85 246.018C1094.43 245.401 1090.01 244.725 1085.58 244.179C1083.81 243.965 1082.02 243.965 1080.22 243.954C1076.78 243.93 1072.7 247.228 1072.78 251.618C1072.84 255.024 1073.06 258.405 1073.67 261.751C1075.1 269.547 1074.9 277.414 1074.59 285.28C1074.56 285.755 1074.32 286.431 1073.95 286.645C1073.26 287.06 1072.56 286.574 1072.11 286.063C1071.41 285.268 1070.8 284.378 1070.26 283.477C1064.89 274.613 1059.56 265.738 1054.19 256.863C1053.73 256.104 1053.25 255.332 1052.7 254.632C1048.89 249.862 1045.86 244.606 1042.9 239.302C1041.94 237.594 1040.82 235.956 1039.61 234.414C1037.22 231.364 1034.65 230.712 1031.11 232.468C1028.9 233.571 1026.87 235.102 1024.8 236.49C1023.77 237.19 1022.83 238.033 1021.82 238.78C1018.41 241.319 1018.15 241.331 1016.71 237.428C1014.29 230.878 1011.25 224.613 1008.26 218.313C1005.9 213.341 1004.14 212.285 998.556 212.831C996.906 212.985 995.269 213.187 993.632 213.424C988.719 214.112 983.855 215.062 978.99 216.035C976.379 219.642 975.632 223.486 975.81 227.591C975.822 227.947 975.846 228.291 975.881 228.647C975.964 229.691 976.107 230.747 976.285 231.815C978.325 244.179 983.143 255.095 991.662 264.338C992.267 264.991 992.932 265.608 993.525 266.272C996.74 269.844 996.254 274.032 992.303 276.785C991.864 277.093 991.377 277.33 990.903 277.568C978.634 283.785 967.836 291.96 958.427 301.963C956.992 303.493 954.975 304.538 954.239 306.697C955.71 308.785 958.214 308.773 960.302 309.521C965.191 311.253 970.174 312.736 975.11 314.326C976.296 314.718 977.507 315.086 978.634 315.62C980.319 316.415 980.959 317.898 980.366 319.63C979.963 320.805 979.37 321.932 978.836 323.059C976.534 327.912 974.362 332.836 971.871 337.594C970.518 340.169 970.743 342.269 972.357 344.559C973.793 346.6 974.873 348.89 976.273 350.966C977.815 353.256 977.875 355.629 977.21 358.157C976.035 362.654 974.884 367.162 973.734 371.671C972.31 377.224 971.005 382.801 969.45 388.306C968.774 390.679 968.798 392.768 969.889 395.022C972.713 400.812 975.383 406.686 978.053 412.547C978.824 414.232 979.951 415.051 981.838 414.742C985.741 414.125 989.669 414.03 993.62 413.971C995.032 413.947 996.444 413.567 997.844 413.306C1007.18 411.562 1016.56 410.21 1026.05 409.747C1028.56 409.628 1030.98 409.26 1033.38 408.347C1037.63 406.721 1039.37 407.255 1042.29 410.732C1043.56 412.239 1044.84 413.757 1045.86 415.43C1048.4 419.595 1051.77 423.06 1055.02 426.631C1055.63 427.296 1056.32 427.877 1056.9 428.553C1066.47 439.683 1076.75 450.184 1085.9 461.681C1087.79 464.066 1089.7 466.451 1091.82 468.634C1098.81 475.836 1104.99 483.727 1111.45 491.392C1112.6 492.756 1113.89 494.014 1115.17 495.26C1121.71 501.631 1128.21 508.051 1133.91 515.205C1134.58 516.036 1135.33 516.831 1136.16 517.483C1137.94 518.872 1138.15 520.818 1138.08 522.799C1138.02 524.472 1136.32 525.67 1134.63 525.303C1133.76 525.113 1132.88 524.852 1132.08 524.484C1127.85 522.55 1123.64 520.58 1119.42 518.611C1117.45 517.697 1115.81 516.309 1114.17 514.909C1108.58 510.151 1102.91 505.499 1097.37 500.682C1095.25 498.831 1093.11 498.19 1090.49 499.294C1090.16 499.436 1089.81 499.543 1089.47 499.626C1085.01 500.623 1082.16 499.662 1079.79 495.829C1074.22 486.859 1068.5 477.96 1063.59 468.599C1062 465.561 1061.01 462.31 1060.15 459.023C1059.63 457.042 1059.12 456.745 1057.08 456.923C1054.2 457.172 1051.46 458.038 1048.72 458.857C1040.12 461.42 1031.92 465.015 1023.64 468.421C1016.85 471.209 1010.05 473.997 1003.23 476.691C998.401 478.601 993.418 480.06 988.328 481.164C985.314 481.816 982.288 481.983 979.251 481.757C974.528 481.389 971.159 479.123 969.604 474.507C968.287 470.604 967.006 466.7 965.641 462.82C964.989 460.969 964.253 459.13 962.948 457.611C962.165 456.71 960.789 456.84 960.29 457.86C959.566 459.344 959.294 460.922 959.222 462.535C958.866 471.126 959.092 479.704 959.638 488.295C960.243 497.846 962.829 506.971 964.977 516.202C966.282 521.779 967.647 527.355 968.572 532.991C969.177 536.634 970.482 539.802 972.5 542.839C975.763 547.775 978.432 553.055 980.782 558.49C981.351 559.807 981.932 561.112 981.909 562.595C981.885 564.138 981.375 565.431 979.892 566.095C978.622 566.665 977.4 566.356 976.391 565.478C974.908 564.197 973.306 562.975 972.072 561.48C967.279 555.713 961.572 550.671 957.858 544.085C954.773 538.615 951.166 533.502 947.689 528.305C943.703 522.348 940.036 516.214 936.572 509.937C926.011 490.81 916.424 471.185 906.659 451.643C906.185 450.682 905.698 449.709 905.366 448.7C904.132 444.915 901.332 442.436 898.282 440.181C896.752 439.054 895.826 439.208 894.735 440.858C891.661 445.473 888.541 450.065 886.109 455.084C885.254 456.852 884.364 458.62 883.391 460.328C881.671 463.354 879.132 465.205 875.548 465.015C872.191 464.837 869.841 462.915 868.56 459.901C865.677 453.162 862.722 446.422 861.82 439.03C861.286 434.616 861.275 434.45 857.039 434.344C850.382 434.166 844.402 432.042 838.802 428.66C837.58 427.924 836.334 427.129 835.373 426.109C831.552 422.11 831.006 418.705 832.869 414.398C834.02 411.752 835.515 409.32 837.164 406.97C840.558 402.129 844.283 397.526 848.235 393.135C850.809 390.288 852.53 387.108 853.669 383.418C856.256 375.041 859.174 366.771 861.927 358.441C863.161 354.728 865.427 351.844 868.631 349.637C871.609 347.597 874.86 346.149 878.254 344.951C881.623 343.764 884.946 342.411 888.292 341.142C890.095 340.466 891.199 339.291 891.673 337.333C893.358 330.511 897.167 325.017 902.21 320.188C905.698 316.854 908.89 313.199 912.2 309.675C913.055 308.762 913.85 307.789 914.645 306.816C918.987 301.5 921.562 295.579 921.004 288.543C920.684 284.426 920.933 280.321 921.325 276.215C922.06 268.384 922.701 260.541 923.318 252.71C923.543 249.862 923.603 247.003 923.733 244.143C921.776 243.776 920.542 241.96 918.43 241.735C914.775 241.355 911.346 241.355 908.214 243.764C906.434 245.128 906.149 244.962 904.535 243.467C902.032 241.165 899.659 238.733 896.728 236.941C894.628 239.896 893.299 243.253 891.792 246.516C891.578 246.979 891.353 247.442 891.128 247.905C872.535 286.051 854.025 324.234 835.385 362.357C830.271 372.81 825.572 383.477 819.331 393.349C818.643 394.429 818.156 395.556 818.085 396.837C817.788 401.975 816.353 406.686 812.959 410.684C812.069 411.728 812.437 412.737 813.327 413.496C816.317 416.059 819.26 418.693 822.38 421.078C827.755 425.195 831.908 430.25 834.768 436.372C835.681 438.33 836.749 440.169 838.173 441.819C844.367 448.997 850.442 456.294 857.086 463.081C858.581 464.612 859.946 466.297 861.18 468.041C863.885 471.873 867.112 475.231 870.684 478.221C874.552 481.449 878.135 484.949 881.291 488.853C883.557 491.653 886.109 494.121 888.861 496.434C893.667 500.469 898.401 504.586 901.984 509.818C907.264 517.543 913.719 524.27 920.114 531.022C922.333 533.371 924.41 535.803 926.261 538.461C928.408 541.546 930.402 544.845 933.071 547.431C937.948 552.154 943.24 556.461 948.425 560.851C950.193 562.346 952.091 563.734 954.073 564.944C963.304 570.569 971.669 577.225 978.859 585.329C980.651 587.346 982.538 589.292 984.828 590.716C990.535 594.228 995.257 598.867 999.908 603.59C1003.56 607.292 1006.99 611.195 1008.87 616.179C1009.33 617.425 1010.31 618.184 1011.19 619.074C1014.44 622.396 1017.92 625.576 1020.29 629.622C1023.03 634.297 1026.46 638.45 1030.08 642.377C1034.69 647.396 1037.81 653.139 1039.7 659.546C1040.58 662.536 1041.9 665.182 1043.67 667.674C1045.25 669.881 1046.37 672.301 1047.1 674.912C1047.31 675.683 1047.03 676.359 1046.35 676.727C1045.68 677.083 1044.85 677.024 1044.32 676.537C1043.39 675.707 1042.55 674.769 1041.78 673.785C1038.01 669.015 1034.42 664.079 1029.11 660.816C1028.52 660.448 1028.12 659.795 1027.63 659.273C1025.77 657.327 1023.92 655.393 1022.07 653.447C1020.59 651.893 1018.99 650.434 1017.68 648.737C1012.73 642.342 1006.52 637.145 1001.2 631.093C1000.5 630.298 999.517 629.764 998.734 629.029C995.494 625.944 991.887 623.144 989.147 619.655C985.1 614.506 980.402 610.258 975.003 606.639C972.927 605.251 970.993 603.637 969.047 602.047C966.14 599.662 963.47 596.933 960.361 594.869C954.998 591.321 949.445 588.011 943.821 584.89C938.612 581.995 933.807 578.59 929.452 574.591C924.564 570.094 919.45 565.906 914.182 561.883C913.197 561.124 912.105 560.412 911.382 559.439C906.493 552.972 900.489 547.586 894.735 541.95C890 537.31 885.136 532.801 880.71 527.877C876.972 523.736 872.974 519.94 868.726 516.356C866.543 514.505 864.205 512.702 862.532 510.435C857.988 504.325 852.02 499.733 846.526 494.619C846.36 494.465 845.933 494.595 845.529 494.595C845.565 495.177 845.482 495.734 845.636 496.209C846.882 500.16 847.463 504.218 847.689 508.359C848.163 516.76 849.504 525.089 849.492 533.525C849.492 534.415 849.492 535.376 849.813 536.171C852.304 542.116 853.776 548.464 856.813 554.171C861.951 563.805 867.302 573.333 872.475 582.944C874.504 586.729 876.593 590.526 878.147 594.513C880.734 601.193 882.549 608.098 883.166 615.301C883.51 619.347 882.418 623.108 881.493 626.905C880.912 629.313 878.064 629.907 876.45 628.091C875.026 626.49 873.484 624.935 872.38 623.132C869.307 618.065 865.831 613.331 861.832 608.976C859.886 606.853 858.474 604.349 857.098 601.822C854.784 597.574 852.554 593.291 850.109 589.126C848.211 585.887 845.968 582.861 844.034 579.646C842.646 577.344 841.187 575.113 839.561 572.965C836.749 569.252 834.056 565.455 831.445 561.598C826.498 554.278 823.057 546.15 820.245 537.856C817.539 529.894 815.973 521.553 815.273 513.164C814.692 506.259 812.71 499.875 809.874 493.622C806.991 487.274 804.155 480.879 802.292 474.116C800.999 469.429 799.006 465.027 796.941 460.661C796.111 458.893 795.09 457.137 793.809 455.677C788.849 450.029 783.759 444.5 778.704 438.935C776.901 436.954 775.038 435.008 773.211 433.038C767.859 427.26 762.698 421.315 757.038 415.822C747.249 406.33 739.608 395.497 735.871 382.124C734.554 377.39 733.545 372.763 734.554 367.886C730.08 368.681 726.094 368.1 723.068 364.184C722.356 363.259 721.051 362.725 719.947 362.179C710.799 357.694 701.805 352.936 693.405 347.146C692.823 346.742 692.195 346.398 691.578 346.03C690.711 345.532 689.976 345.579 689.205 346.339C688.326 347.217 687.389 348.095 686.333 348.7C683.485 350.326 681.017 349.91 678.644 347.537C676.248 345.129 673.898 342.684 671.502 340.276C667.337 336.087 662.994 332.101 658.094 328.778C656.136 327.449 654.688 325.646 653.146 323.914C650.049 320.449 646.881 317.055 643.832 313.555C640.379 309.58 635.526 309.521 631.551 313.152C630.756 313.875 629.89 314.564 629.273 315.418C625.785 320.283 620.92 323.664 616.435 327.485C614.608 329.039 612.662 330 610.265 330.392C597.961 332.397 586.546 336.93 575.678 342.922C574.266 343.705 572.901 344.559 571.465 345.259C570.516 345.722 569.472 345.971 568.464 346.315C565.106 352.604 561.736 358.892 558.378 365.181C553.003 375.254 547.735 385.399 542.23 395.402C535.597 407.445 528.608 419.286 519.745 429.894C515.711 434.723 511.214 439.007 505.862 442.353C505.115 444.773 503.24 446.114 501.093 447.063C494.721 449.863 488.693 453.221 482.963 457.196C479.011 459.937 474.716 462.108 469.863 462.939C468.487 463.176 467.194 463.888 465.865 464.386C460.549 466.392 455.423 466.32 450.594 462.998C450.155 462.701 449.692 462.429 449.253 462.132C448.28 461.491 447.307 461.301 446.287 462.037C445.86 462.346 445.385 462.607 444.946 462.915C440.663 466.036 436.095 466.273 431.301 464.291C430.53 465.098 430.186 466.119 429.842 467.127C429.723 467.459 429.604 467.804 429.462 468.124C425.463 477.675 422.473 487.725 415.532 495.794C411.617 502.877 406.242 508.94 401.614 515.526C401.009 516.392 400.285 517.246 399.455 517.875C396.607 520.011 392.668 518.492 391.885 515.015C391.564 513.58 391.707 512.156 392.288 510.803C393.415 508.169 394.626 505.571 395.729 502.937C396.975 499.97 398.328 497.028 399.289 493.966C400.119 491.321 397.889 488.959 395.124 489.197C394.59 489.244 394.032 489.292 393.546 489.493C387.625 491.961 381.645 494.061 378.062 500.243C374.656 506.105 370.575 511.598 365.686 516.416C363.906 518.172 362.02 519.868 360.442 521.802C356.253 526.893 352.884 532.267 355.019 539.387C355.601 541.309 354.652 542.175 352.765 541.665C349.478 540.775 346.192 539.861 342.774 539.731C337.186 539.517 331.763 538.592 326.424 536.895C321.607 535.364 316.623 534.747 311.569 535.293C304.414 536.053 300.795 540.988 302.112 548.013C302.705 551.204 303.75 554.266 305.173 557.161C308.021 562.939 310.999 568.658 313.977 574.377C316.801 579.788 319.495 585.234 321.251 591.095C323.066 597.159 323.766 603.317 323.232 609.665C322.651 616.546 320.598 622.977 317.834 629.242C315.923 633.573 313.894 637.833 311.806 642.069C302.539 652.961 294.459 664.648 287.589 677.19C281.265 688.723 275.937 700.232 273.315 713.153C270.527 726.905 265.876 740.016 261.675 753.377C259.338 760.804 255.944 765.194 249.573 769.668C244.494 773.227 240.603 777.297 236.379 781.806C231.87 786.623 227.207 791.357 222.057 795.498C216.231 800.161 209.8 802.914 203.322 806.426C197.864 809.381 192.916 813.166 187.612 816.369C181.134 820.273 174.394 823.441 168.165 827.796C157.415 835.306 146.713 843.399 136.71 851.882C127.515 859.69 102.349 885.924 126.66 892.295C132.427 893.802 138.668 893.339 144.565 893.351C151.388 893.351 158.305 893.612 165.104 893.066C167.05 892.912 168.996 892.616 170.942 892.544C174.489 892.414 175.688 892.889 174.644 896.674C173.137 902.108 167.738 907.862 164.487 912.312C156.027 923.892 146.831 934.761 134.575 942.414C129.318 945.701 124.632 949.225 120.111 953.461C114.202 958.978 108.661 962.799 101.138 965.872C95.2294 968.28 90.2578 971.638 85.049 975.281C79.3181 979.28 73.0532 982.376 67.1681 986.149C57.8182 992.13 48.6345 998.394 39.3084 1004.42C25.9244 1013.07 11.864 1022.92 2.35997 1035.91C-5.88639 1047.18 -6.77627 1063.46 10.1792 1065.87C19.2917 1067.17 28.3924 1065.27 37.5049 1065.04C52.9416 1064.67 68.4139 1065.54 83.8388 1065.08C97.8516 1064.65 112.031 1061.98 125.735 1059.19C139.878 1056.32 154.924 1053.12 168.296 1047.6C180.173 1042.7 190.223 1034.65 203.025 1032.06C209.634 1030.72 216.397 1030.11 222.698 1027.56C228.548 1025.19 233.068 1021.51 239.511 1020.75C254.877 1018.93 270.408 1018.71 285.75 1016.7C292.311 1015.85 298.837 1014.7 305.446 1014.2C310.762 1013.8 316.042 1013.89 321.346 1013.19C330.636 1011.96 341.932 1009.36 350.997 1004.1C351.033 1004.46 351.056 1004.83 351.056 1005.22C351.056 1008.55 351.697 1008.88 354.972 1007.98C356.182 1007.65 357.369 1007.25 358.567 1006.89C368.356 1004.01 378.157 1001.11 388.242 999.439C405.376 996.603 422.509 993.791 439.678 991.216C449.052 989.804 458.508 988.973 468 988.499C478.205 987.977 488.409 988.048 498.613 988.024C509.019 988 518.891 985.9 528.252 981.439C538.955 976.337 550.084 972.374 561.38 968.874C577.363 963.914 593.725 961.031 610.502 960.805C616.767 960.722 623.02 961.043 629.285 961.149C642.171 961.363 655.08 961.185 667.966 961.09C670.647 961.066 673.353 960.924 675.998 960.556C679.914 959.998 683.806 959.666 687.769 960.058C689.169 960.2 690.628 960.058 692.017 959.773C693.535 959.476 693.974 957.59 693.001 956.332C691.364 954.208 689.074 953.14 686.57 952.749C678.063 951.42 669.84 948.809 661.428 947.065C651.971 945.108 642.467 943.375 632.999 941.441C627.209 940.266 621.513 938.475 615.687 937.704C602.802 936.007 590.557 932.079 578.312 928.033C572.533 926.123 566.826 924.047 561.309 921.424C557.109 919.431 552.6 918.221 547.866 917.96C544.294 917.758 540.723 917.343 537.175 916.856C529.735 915.824 522.225 915.219 514.939 913.166C512.199 912.395 509.315 912.075 506.479 911.671C499.74 910.71 493.048 909.512 486.486 907.637C474.787 904.279 463.148 900.708 451.377 897.563C432.701 892.58 413.919 887.988 395.231 883.028C382.072 879.54 369.198 875.15 356.669 869.775C344.839 864.708 335.43 856.593 327.48 846.709C324.787 843.363 322.331 839.815 319.352 836.718C313.432 830.56 312.791 823.512 315.437 815.8C316.849 811.683 319.174 808.111 321.797 804.658C326.792 798.061 332.369 792.046 338.835 786.872C341.635 784.63 344.329 782.209 347.782 781.023C355.233 778.46 362.696 775.885 370.598 775.09C378.43 774.295 386.284 773.69 394.139 773.026C400.202 772.515 406.289 772.171 412.34 771.495C421.239 770.498 430.138 769.608 439.108 769.822C443.938 769.929 448.779 769.893 453.62 769.905C461.32 769.917 469.021 769.988 476.65 768.635C478.584 768.291 480.53 767.947 482.488 767.722C492.799 766.547 503.098 765.349 513.421 764.305C519.116 763.723 524.859 763.593 530.542 762.964C536.795 762.264 543.048 761.967 549.301 762.371C553.264 762.632 557.192 762.549 561.095 762.038C569.259 760.982 577.457 760.164 585.49 758.194C593.843 756.153 602.339 754.753 610.87 753.709C626.354 751.81 641.648 749.058 656.67 744.774C663.042 742.959 669.484 741.452 676.224 741.808C679.439 741.974 682.643 741.488 685.799 740.728C688.054 740.182 690.379 739.933 692.669 739.506C697.237 738.628 701.877 738.142 706.279 736.481C707.762 735.923 709.423 735.792 711.013 735.626C723.638 734.25 735.538 730.69 746.526 724.224C751.153 721.507 755.875 718.932 760.55 716.298C769.117 711.48 776.201 704.919 782.157 697.23C784.922 693.671 787.152 689.826 791.614 688.058C792.717 687.619 793.109 686.196 792.444 685.341C790.51 682.814 788.825 679.931 785.337 679.183C778.989 677.819 773.199 674.912 767.183 672.634C764.679 671.684 762.14 670.723 759.53 670.154C755.223 669.216 750.999 669.311 747.404 672.467C747 672.823 746.549 673.12 746.11 673.429C742.195 676.264 737.757 677.558 732.999 677.154C729.629 676.87 726.272 676.146 722.961 675.422C712.627 673.144 702.66 669.62 692.622 666.369C686.428 664.352 680.733 661.516 675.844 657.078C674.147 655.548 672.724 654.088 672.902 651.703C673.044 649.745 671.905 648.773 670.434 647.954C669.959 647.693 669.52 647.372 669.022 647.171C663.754 644.94 658.533 642.531 653.17 640.574C649.041 639.067 644.745 639.007 640.711 641.202C638.955 642.164 637.128 642.816 635.111 642.899C627.624 643.196 620.481 641.998 613.991 638.011C611.855 636.694 609.778 635.294 607.619 634.024C605.151 632.576 602.719 631.022 600.096 629.895C592.052 626.43 584.114 622.61 575.286 621.388C574.93 621.34 574.586 621.245 574.242 621.138C566.874 618.777 559.304 617.614 551.639 616.665C541.245 615.372 530.898 615.68 520.552 616.606C514.821 617.116 509.114 617.14 503.383 617.104C497.225 617.08 492.763 614.233 489.619 609.19C487.815 606.295 486.047 603.435 483.686 600.932C482.749 599.935 482.085 598.511 481.705 597.17C479.581 589.755 481.634 585.282 487.578 583.134C490.117 582.208 492.265 580.583 494.484 579.052C499.325 575.706 504.166 572.325 510.371 571.755C512.839 571.53 515.248 570.628 517.668 569.975C519.033 569.608 519.199 568.682 518.036 567.721C516.672 566.582 515.212 565.538 513.753 564.517C511.119 562.666 508.414 560.898 505.815 559.012C503.774 557.529 501.864 555.832 500.665 553.601C498.838 550.184 495.943 547.799 493.179 545.26C491.66 543.86 489.963 543.172 487.898 542.97C479.878 542.163 471.868 541.321 463.883 540.3C461.712 540.027 460.074 540.538 458.461 541.867C455.293 544.501 452.018 547.004 448.862 549.65C446.904 551.299 444.768 552.486 442.3 553.174C436.771 554.728 431.491 556.947 426.163 559.047C420.35 561.337 414.583 563.877 408.413 565.134C404.735 565.882 401.033 566.594 397.343 567.282C396.287 567.472 395.219 567.59 394.151 567.614C393.226 567.638 392.395 567.282 391.908 566.416C391.327 565.372 391.434 564.304 392.11 563.39C392.739 562.536 393.51 561.765 394.27 561.017C396.975 558.395 399.704 555.832 402.065 552.878C403.062 551.632 404.355 550.623 405.565 549.555C407.844 547.538 410.134 545.545 412.447 543.563C415.58 540.894 418.736 538.259 421.88 535.602C424.502 533.371 427.469 531.757 430.72 530.618C434.445 529.313 438.005 527.64 441.244 525.326C444.056 523.321 446.37 520.972 447.948 517.816C449.787 514.137 451.899 510.59 453.952 507.018C455.471 504.384 457.072 501.786 458.662 499.199C459.351 498.084 460.395 497.099 461.676 497.241C465.912 497.716 470.279 497.336 474.253 499.472C477.564 501.252 481.017 502.759 484.327 504.538C486.38 505.642 488.314 505.701 490.509 504.989C496.975 502.901 503.489 500.931 510.003 498.962C511.048 498.641 511.985 498.226 512.887 497.609C517.312 494.572 521.75 491.546 526.247 488.603C528.94 486.847 531.705 485.162 534.529 483.62C536.878 482.338 538.848 483.525 538.907 486.266C538.967 488.769 538.789 491.273 538.611 493.777C538.041 501.631 537.294 509.474 536.866 517.341C536.463 524.745 535.454 524.33 543.511 525.837C556.741 528.316 570.172 528.981 583.568 529.894C601.603 531.128 619.71 531.508 637.519 535.068C638.777 535.317 640.011 535.293 641.174 534.652C643.82 533.181 643.891 531.212 642.325 529.408C640.308 527.082 637.875 525.255 635.396 523.487C628.537 518.563 622.225 513.022 616.031 507.303C611.689 503.293 607.168 499.484 602.636 495.687C599.349 492.934 595.694 490.609 592.669 487.524C591.482 486.313 589.928 485.851 588.385 485.412C586.321 484.818 584.244 484.261 582.156 483.75C580.507 483.359 579.854 482.339 579.7 480.701C579.475 478.387 579.095 476.086 578.703 473.796C578.549 472.929 578.229 472.075 577.885 471.256C577.422 470.153 576.39 469.726 575.251 470.034C573.044 470.627 571.477 472.051 570.338 473.95C569.603 475.172 569.069 476.525 568.321 477.735C566.767 480.274 564.572 480.381 562.745 477.984C561.985 476.999 561.309 475.896 560.858 474.745C559.932 472.419 559.054 470.058 558.402 467.649C557.18 463.152 556.42 458.56 556.112 453.897C556.041 452.794 555.827 451.691 554.522 451.418C552.493 451.002 552.137 449.59 552.137 447.822C552.137 445.663 552.268 443.551 552.896 441.451C556.337 429.941 560.514 418.693 564.963 407.564C566.684 403.257 568.903 399.08 572.083 395.639C577.054 390.24 582.168 384.972 587.389 379.811C590.877 376.358 593.416 372.276 595.908 368.135C596.869 366.545 597.379 364.979 596.774 363.057C595.789 359.936 596.691 357.006 598.234 354.3C599.112 352.758 600.179 351.287 601.39 349.981C605.899 345.129 610.467 340.335 615.07 335.565C616.565 334.023 618.12 332.516 619.828 331.223C623.981 328.102 627.968 324.792 631.753 321.244C632.275 320.757 632.88 320.342 633.497 319.998C634.968 319.179 636.985 320.152 637.211 321.825C637.306 322.513 637.27 323.261 637.128 323.937C636.25 328.138 635.312 332.338 634.399 336.538C634.043 338.164 633.189 339.481 631.967 340.608C630.127 342.305 628.443 344.191 626.544 345.817C624.396 347.656 623.898 349.827 624.302 352.544C625.488 360.506 626.414 368.515 627.624 376.477C629.059 385.886 629.76 395.283 629.059 404.835C628.478 412.737 631.326 419.571 637.306 424.934C645.244 432.042 652.054 439.979 656.717 449.709C660.847 458.323 666.411 466.024 673.412 472.573C680.863 479.55 688.469 486.361 696.003 493.243C696.668 493.848 697.344 494.441 698.044 494.987C706.255 501.477 713.22 509.118 719.295 517.626C721.395 520.568 722.712 523.902 724.326 527.094C725.37 529.159 724.361 531.413 722.368 532.624C720.79 533.573 719.283 533.324 717.515 531.781C716.981 531.306 716.483 530.784 715.984 530.274C713.374 527.533 710.337 525.314 707.204 523.238C701.378 519.394 695.647 515.419 690.083 511.183C685.669 507.825 681.017 504.776 676.437 501.643C675.298 500.872 674.325 501.453 674.349 502.877C674.48 510.079 675.465 517.116 677.66 524.021C678.656 527.165 680.056 529.859 682.24 532.374C694.568 546.577 707.05 560.649 718.381 575.683C718.915 576.394 719.508 577.083 720.125 577.723C725.655 583.324 730.484 589.589 736.488 594.75C737.294 595.45 738.006 596.269 738.718 597.076C742.658 601.537 747.214 605.263 752.09 608.644C754.748 610.495 757.525 612.109 760.396 613.568C765.38 616.096 770.007 619.121 773.958 623.108C775.228 624.389 776.414 625.706 776.913 627.51C777.399 629.242 776.497 630.773 774.729 631.117C773.127 631.425 771.502 631.414 769.936 630.939C765.32 629.539 760.669 628.21 756.125 626.596C744.449 622.432 733.474 616.748 722.641 610.792C719.022 608.798 715.32 607.042 711.44 605.642C695.944 600.077 680.472 594.418 664.952 588.877C653.146 584.665 641.281 580.618 629.475 576.418C627.031 575.552 624.729 575.35 622.154 576.038C616.447 577.569 610.68 578.862 604.926 580.179C602.659 580.701 600.369 581.224 598.067 581.402C591.459 581.912 584.85 582.315 578.229 582.624C575.345 582.766 572.545 583.205 569.793 584.036C564.999 585.495 560.146 586.777 555.388 588.343C552.801 589.197 550.523 588.972 548.186 587.655C546.632 586.777 545.018 585.887 543.309 585.424C540.485 584.653 538.029 583.324 535.692 581.603C532.714 579.42 529.332 578.59 525.583 578.649C519.804 578.744 514.239 580.179 508.556 580.891C507.868 580.974 507.156 581.271 506.563 581.639C501.413 584.866 496.275 588.117 491.161 591.416C490.034 592.152 489.749 593.457 490.283 594.75C490.556 595.403 490.853 596.103 491.339 596.601C493.736 599.081 495.492 601.94 496.892 605.085C498.233 608.122 500.594 609.582 504.083 609.688C511.439 609.914 518.796 609.938 526.081 609.131C539.465 607.659 552.54 609.392 565.474 612.453C573.127 614.268 580.637 616.724 588.196 618.908C589.394 619.252 590.557 619.738 591.743 620.153C599.859 623.049 607.583 626.774 615.213 630.773C620.469 633.526 625.975 635.602 632.109 635.4C634.28 635.329 636.345 635.341 638.314 634.19C639.359 633.573 640.664 633.146 641.862 633.11C647.213 632.956 652.6 632.505 657.667 635.009C663.113 637.702 668.642 640.23 674.112 642.864C674.919 643.243 675.678 643.742 676.39 644.276C678.146 645.581 679.724 647.1 680.092 649.354C680.377 651.122 681.492 652.107 682.726 653.21C685.597 655.809 689.145 657.078 692.622 658.455C699.124 661.029 705.923 662.702 712.543 664.897C719.034 667.057 725.678 668.362 732.382 669.537C734.174 669.857 735.906 669.703 737.686 669.216C740.688 668.386 743.381 666.962 745.541 664.802C747.356 662.987 749.338 662.418 751.782 662.287C758.189 661.955 764.217 663.296 770.09 665.752C776.035 668.232 781.896 670.913 788.268 672.23C791.151 672.823 793.56 674.413 795.387 676.751C796.49 678.163 797.606 679.575 798.59 681.058C801.023 684.736 800.904 688.486 798.531 692.128C797.558 693.623 796.348 694.964 795.256 696.388C794.58 697.266 793.761 698.156 792.693 698.191C790.451 698.263 789.822 699.983 788.79 701.431C783.047 709.511 776.675 717.033 768.025 722.147C759.245 727.332 750.726 733.004 741.4 737.228C738.956 738.332 736.476 739.435 733.913 740.171C725.833 742.52 717.646 744.43 709.364 745.985C699.551 747.836 689.537 749.058 680.436 753.673C679.499 754.148 678.395 754.35 677.339 754.516C665.771 756.331 655.056 761.148 643.867 764.305C639.24 765.61 634.672 767.235 630.032 768.576C621.43 771.068 612.674 772.943 603.953 774.948C597.13 776.514 590.236 777.582 583.271 778.14C577.03 778.638 570.766 778.816 564.702 780.607C563.338 781.011 561.89 781.141 560.466 781.248C553.857 781.758 547.26 782.257 540.651 782.672C529.866 783.36 519.353 785.282 509.22 789.127C506.895 790.005 504.427 790.598 501.971 791.096C496.358 792.224 490.651 792.959 485.086 794.288C473.399 797.076 461.546 798.904 449.716 800.873C442.3 802.119 434.813 802.867 427.386 804.018C418.7 805.358 410.003 806.343 401.199 806.355C399.775 806.355 398.328 806.438 396.927 806.699C389.013 808.17 381.099 809.666 373.197 811.244C368.949 812.098 361.616 815.539 357.238 818.529C358.081 820.154 359.73 820.415 361.237 820.807C364.879 821.733 368.534 822.611 372.2 823.429C374.122 823.856 376.056 824.284 378.014 824.426C387.851 825.126 397.616 826.455 407.298 828.235C421.904 830.928 436.439 834.001 451.009 836.908C452.065 837.122 453.133 837.205 454.189 837.383C457.725 837.964 461.261 838.51 464.773 839.163C473.791 840.824 482.381 843.98 491.102 846.65C505.993 851.206 520.836 855.928 535.941 859.773C541.316 861.137 546.679 862.585 551.995 864.198C555.293 865.207 558.556 865.859 562.021 865.598C563.789 865.468 565.604 865.646 567.372 865.907C572.723 866.678 578.063 866.749 583.449 866.429C590.438 866.014 597.403 866.109 604.297 867.639C607.963 868.458 611.677 869.075 615.403 869.55C628.763 871.234 641.743 874.711 654.831 877.653C656.053 877.926 657.263 878.282 658.438 878.71C667.23 881.878 676.259 884.001 685.514 885.33C692.776 886.374 700.014 887.383 707.382 887.632C716.518 887.929 725.643 887.763 734.779 887.917C741.59 888.036 748.377 887.763 755.175 887.229C757.133 887.075 759.115 886.968 761.072 887.134C764.312 887.407 767.503 887.324 770.719 886.885C776.675 886.078 782.513 886.659 788.22 888.498C792.48 889.875 796.751 891.31 800.679 893.458C804.843 895.724 809.293 896.875 813.885 897.741C821.443 899.165 828.989 900.672 836.524 902.238C844.165 903.828 850.928 907.59 857.786 911.042C860.527 912.419 862.781 914.519 864.644 916.975C867.884 921.27 871.301 925.387 875.228 929.089C876.64 930.43 877.744 932.103 878.894 933.705C886.287 944.04 889.787 955.822 891.116 968.257C891.828 974.972 890.76 981.605 887.081 987.383C882.051 995.298 875.726 1002.08 867.978 1007.51C856.457 1015.55 843.512 1020.05 829.986 1023.16C822.273 1024.93 814.478 1025.91 806.552 1025.61C805.306 1025.57 804.025 1025.52 802.791 1025.71C794.449 1027 786.001 1026.4 777.613 1027.25C771.573 1027.86 765.463 1027.82 759.423 1028.67C751.45 1029.81 743.464 1030.75 735.55 1032.35C728.728 1033.73 721.739 1034.48 714.798 1035.05C709.791 1035.46 704.831 1036.02 699.895 1036.96C690.593 1038.74 681.445 1041.2 671.917 1041.96C656.029 1043.23 640.177 1044.79 624.218 1044.81C620.991 1044.81 617.776 1044.76 614.548 1044.65C607.88 1044.42 601.319 1045.33 594.793 1046.42C584.47 1048.16 574.764 1051.85 565.284 1056.14C554.664 1060.95 543.926 1065.49 532.488 1067.94C521.264 1070.33 509.909 1071.78 498.387 1071.84C489.619 1071.89 480.851 1071.89 472.07 1072.34C461.866 1072.86 451.721 1073.92 441.636 1075.42C433.674 1076.61 425.76 1078.18 417.775 1079.24C402.267 1081.32 387.15 1084.9 372.402 1090.08C366.825 1092.04 361.225 1093.91 355.506 1095.44C353.382 1096.01 352.255 1096.33 351.662 1096.98C347.224 1098.68 342.857 1100.72 338.562 1103.13C321.547 1112.66 303.239 1118.9 284.397 1123.88C274.953 1126.37 265.354 1128.2 255.897 1130.63C246.452 1133.07 237.019 1135.62 227.397 1137.3C218.438 1138.87 208.851 1142.38 199.786 1142.46C195.74 1142.5 191.706 1142.05 187.66 1142.47C182.819 1142.98 177.966 1144.1 173.208 1145.08C163.122 1147.17 153.642 1150.89 143.367 1152.1C134.183 1153.19 125.355 1155.18 116.421 1157.54C107.035 1160.02 97.6499 1162.65 88.039 1164.13C79.7096 1165.42 70.7039 1167.28 62.3033 1167.14C57.308 1167.06 52.5738 1167.57 49.9515 1172.39C47.2344 1177.37 46.8903 1184.37 49.6786 1189.4C55.7062 1200.27 72.9939 1202.52 83.732 1205.3C93.0343 1207.7 102.633 1208.73 111.995 1210.93C120.704 1212.97 129.176 1214.57 138.087 1215.28C147.911 1216.07 157.249 1219.35 166.884 1221.24C176.008 1223.03 185.061 1223.07 194.328 1222.56C203.915 1222.03 213.597 1221.18 223.125 1222.78C233.377 1224.51 243.557 1226.94 253.654 1229.42C273.22 1234.23 292.573 1239.86 312.032 1245.09C314.559 1245.76 317.086 1246.41 319.613 1247.05C325.309 1247 331.016 1246.9 336.711 1246.78C384.849 1245.77 432.927 1242.88 480.981 1240.01C529.427 1237.11 577.849 1237.59 626.354 1238.2C674.61 1238.82 722.973 1239.15 771.087 1234.89C820.339 1230.54 868.951 1220.2 917.919 1213.42C1012.95 1200.25 1108.86 1192.71 1204.85 1194.33C1267.6 1195.38 1392.57 1204.97 1392.57 1201.09C1415.52 1194.87 1439.56 1193.1 1463.31 1192.68C1493.57 1192.14 1523.89 1192.83 1554.16 1192.83C1561.53 1192.83 1568.9 1192.95 1576.25 1192.7C1584.23 1192.43 1592.2 1191.86 1600.14 1193.02C1614.99 1195.19 1630.04 1195.68 1644.65 1199.08C1653.7 1201.18 1667.58 1202.42 1673.72 1193.46C1680.16 1184.07 1670.59 1176.61 1663.19 1172.65C1651.61 1166.45 1641.12 1158.73 1629.22 1153.01C1616.63 1146.96 1603.8 1141.16 1590.99 1135.6C1585.42 1133.18 1579.74 1131.08 1573.83 1129.65C1566.53 1127.87 1559.11 1127.26 1551.98 1124.81C1544.73 1122.32 1537.33 1120.3 1530.11 1117.72C1526.28 1116.36 1515.35 1113.24 1511.73 1108.56C1517.48 1107.71 1523.34 1107.96 1529.12 1106.96C1536.89 1105.63 1544.41 1102.42 1551.88 1100C1566.36 1095.31 1581.2 1091.99 1596.08 1088.86C1611.05 1085.7 1625.97 1082.32 1641.21 1080.75C1656.82 1079.16 1672.53 1079.53 1688.19 1079.49C1703.46 1079.46 1719.26 1080.7 1734.45 1079.05C1748.67 1077.51 1762.45 1072.85 1776.77 1072.21C1792.06 1071.53 1808.12 1072.39 1823.19 1074.96C1835.63 1077.08 1847.72 1082.44 1860.48 1082.13C1872.39 1081.83 1886.2 1075.79 1891.18 1064.27C1892.72 1060.72 1893.36 1057.31 1896.19 1054.47C1898.77 1051.87 1902.37 1049.57 1905.41 1047.49C1910.14 1044.25 1915.22 1043.43 1920.71 1042.13C1922.8 1041.63 1924.16 1038.75 1922.84 1036.9L1922.88 1036.94ZM1273.7 414.991C1271.63 415.715 1269.71 415.264 1268.29 413.698C1265.98 411.159 1264.25 408.157 1263.5 404.823C1262.78 401.726 1264.18 398.866 1265.63 396.185C1265.89 395.698 1266.83 395.414 1267.48 395.354C1269.19 395.176 1270.71 395.817 1271.77 397.134C1274.74 400.872 1276.05 405.309 1276.94 409.462C1276.96 412.215 1275.66 414.315 1273.71 414.991H1273.7ZM1008.95 287.748C1009.27 285.114 1010.52 282.931 1013.14 282.005C1015.68 281.115 1018.16 281.566 1020.14 283.417C1023.59 286.657 1026.11 290.525 1027.23 295.176C1028.34 299.697 1028.86 304.312 1029 308.963C1029.04 310.209 1029 311.467 1029 312.713C1029.05 312.713 1029.1 312.713 1029.14 312.713C1028.99 315.738 1028.91 318.776 1028.67 321.801C1028.44 324.673 1027.76 327.461 1026.33 329.989C1023.65 334.699 1017.99 334.901 1014.95 330.38C1013.13 327.663 1012.31 324.566 1011.99 321.303C1011.01 311.538 1010.01 301.773 1009.03 292.008C1008.89 290.596 1008.77 289.136 1008.95 287.748V287.748ZM1031.39 389.528C1031.11 389.671 1030.83 389.789 1030.54 389.884C1030.19 390.003 1029.83 390.122 1029.45 390.193C1028.91 390.3 1028.34 390.335 1027.76 390.311C1027.17 390.288 1026.58 390.205 1025.99 390.039C1024.65 389.683 1023.33 388.983 1022.17 388.188C1017.71 385.174 1013.83 381.484 1010.39 377.366C1009.15 375.883 1008.19 374.104 1007.41 372.324C1005.94 369.013 1006.73 365.691 1009.26 363.603C1011.7 361.586 1015.18 361.491 1018.2 363.496C1019.39 364.279 1020.51 365.193 1021.53 366.178C1025.12 369.642 1028.66 373.154 1032.23 376.655C1032.69 377.105 1033.12 377.568 1033.5 378.055C1034.65 379.514 1035.39 381.175 1035.34 383.204C1035.27 386.04 1033.67 388.354 1031.38 389.505L1031.39 389.528ZM292.264 683.028C288.621 690.253 285.406 697.669 282.44 705.192C284.801 697.147 288.645 689.209 292.952 681.627C292.727 682.09 292.501 682.553 292.264 683.016V683.028ZM709.838 432.421C705.745 431.045 701.616 429.953 697.237 430.084C694.046 430.179 691.281 428.921 688.754 427.153C685.04 424.567 681.895 421.398 679.831 417.305C675.797 409.32 671.573 401.417 667.918 393.266C665.379 387.571 663.611 381.519 661.606 375.599C660.23 371.529 658.901 367.459 657.014 363.579C656.077 361.669 655.472 359.58 654.866 357.516C653.668 353.411 652.565 349.27 651.437 345.129C651.295 344.618 651.164 344.084 651.141 343.562C651.058 341.688 653.241 340.264 654.938 341.13C655.721 341.533 656.445 342.091 657.097 342.696C661.416 346.73 665.747 350.741 669.971 354.87C671.371 356.234 672.581 357.824 673.732 359.403C677.007 363.899 680.721 367.981 684.47 372.086C689.537 377.628 694.627 383.18 699.195 389.137C703.775 395.117 708.889 400.622 713.813 406.282C717.693 410.744 721.644 415.051 724.456 420.342C726.817 424.768 730.104 428.589 733.842 431.982C735.159 433.181 736.369 434.521 737.603 435.815C737.757 435.981 737.9 436.147 738.03 436.337C738.422 436.883 738.671 437.488 738.718 438.2C738.789 438.924 738.386 439.659 737.757 440.146C737.627 440.252 737.484 440.347 737.342 440.43C737.057 440.585 736.749 440.691 736.428 440.727C734.921 440.929 733.616 440.288 732.275 439.837C724.8 437.381 717.313 434.925 709.85 432.421H709.838ZM748.721 581.307C747.558 580.951 746.431 580.274 745.446 579.539C744.022 578.471 742.563 577.367 741.412 576.027C737.354 571.28 733.331 566.487 729.463 561.575C727.446 559.012 726.307 555.986 726.236 552.64C726.224 551.738 726.307 550.967 726.509 550.315C727.114 548.345 728.728 547.467 731.469 547.562C733.937 547.633 736.203 548.274 738.22 549.401C738.623 549.626 739.015 549.876 739.406 550.137C740.178 550.659 740.901 551.264 741.578 551.94C747.332 557.612 752.043 564.126 756.208 571.043C756.86 572.135 757.181 573.333 757.24 574.615C757.465 579.432 753.313 582.754 748.709 581.33L748.721 581.307Z" fill="#F47F36"/>
<path d="M896.715 236.832C899.646 238.612 902.031 241.056 904.534 243.358C906.16 244.853 906.432 245.019 908.212 243.655C911.345 241.246 914.774 241.234 918.428 241.626C920.528 241.851 921.774 243.655 923.732 244.035C924.005 242.267 924.669 240.451 924.468 238.743C924.1 235.622 925.369 233.225 926.912 230.757C929.178 227.115 931.29 223.377 933.533 219.711C934.494 218.133 935.063 216.626 934.696 214.668C934.268 212.402 934.494 210.017 934.126 207.727C933.699 205.128 934.601 203.289 936.428 201.545C940.711 197.487 944.84 193.251 949.112 189.17C953.656 184.839 957.845 180.223 961.416 175.026C964.454 170.601 967.776 166.388 971.514 162.508C974.302 159.613 977.268 157.145 981.385 156.433C982.074 156.315 982.702 155.923 983.355 155.65C986.44 154.345 989.335 155.211 991.174 157.988C992.396 159.851 992.847 161.939 992.681 164.134C992.586 165.38 992.373 166.626 992.052 167.824C987.721 183.878 984.399 200.193 979.036 215.973C983.901 215.012 988.777 214.051 993.678 213.363C995.315 213.138 996.953 212.936 998.602 212.77C1004.2 212.224 1005.95 213.28 1008.31 218.251C1011.3 224.54 1014.34 230.817 1016.76 237.366C1018.19 241.27 1018.45 241.258 1021.87 238.719C1022.88 237.972 1023.82 237.129 1024.85 236.429C1026.92 235.041 1028.94 233.51 1031.16 232.407C1034.7 230.651 1037.27 231.303 1039.66 234.353C1040.87 235.895 1041.98 237.533 1042.94 239.241C1045.91 244.545 1048.93 249.801 1052.74 254.571C1053.3 255.271 1053.78 256.03 1054.24 256.802C1059.6 265.665 1064.94 274.552 1070.3 283.415C1070.85 284.317 1071.45 285.207 1072.15 286.002C1072.61 286.512 1073.31 287.011 1073.99 286.584C1074.36 286.358 1074.61 285.694 1074.63 285.219C1074.94 277.352 1075.16 269.486 1073.72 261.69C1073.1 258.344 1072.9 254.963 1072.83 251.557C1072.75 247.167 1076.84 243.869 1080.27 243.892C1082.05 243.904 1083.85 243.892 1085.62 244.118C1090.06 244.664 1094.47 245.34 1098.9 245.957C1098.69 245.28 1098.54 244.58 1098.23 243.94C1094.78 236.678 1091.31 229.429 1087.84 222.179C1084.6 215.404 1081.87 208.427 1079.3 201.367C1077.65 196.847 1075.56 192.48 1073.6 188.078C1073.18 187.129 1072.57 186.18 1071.83 185.456C1069.98 183.652 1068.9 181.41 1067.93 179.12C1065.62 173.686 1062.86 168.489 1059.7 163.493C1058.07 160.93 1056.21 158.439 1055.06 155.662C1052.9 150.418 1049.59 146.051 1045.71 142.053C1040.36 136.524 1035.23 130.816 1030.46 124.777C1029.8 123.934 1029.08 123.116 1028.28 122.428C1025.38 119.924 1021.57 119.675 1018.94 121.751C1016.17 123.934 1015.32 127.542 1017.04 130.923C1018 132.822 1019.32 134.542 1020.59 136.262C1022.61 139.003 1024.54 141.804 1025.75 145.007C1027.52 149.682 1029.27 154.369 1030.47 159.234H1030.74L1030.57 159.447C1030.91 160.776 1031.27 162.117 1031.61 163.446H1031.88L1031.72 163.683C1032.04 165.048 1032.36 166.412 1032.68 167.777L1032.95 167.812L1032.76 168.026C1033.02 169.082 1033.28 170.15 1033.55 171.206C1033.58 171.336 1033.6 171.467 1033.64 171.597C1034.25 172.452 1034.43 173.401 1034.61 174.374C1034.79 175.347 1034.97 176.343 1035.55 177.269C1033.69 177.269 1033.32 176.308 1032.96 175.37C1027.29 167.682 1022.26 159.59 1017.68 151.225C1017.03 150.026 1016.39 148.828 1015.75 147.618C1011.58 139.715 1007.43 131.801 1003.26 123.899C1002.77 122.95 1002.21 122.036 1001.62 121.134C998.982 117.136 995.434 114.597 990.474 114.976C987.876 115.178 985.586 114.502 983.26 113.624C982.085 113.185 980.911 112.781 979.748 112.33C978.158 111.701 976.687 111.856 975.097 112.544C971.976 113.908 968.962 115.451 966.198 117.444C961.119 121.099 956.112 124.848 950.975 128.42C948.542 130.104 946.846 132.216 945.564 134.874C929.843 167.373 914.062 199.848 898.317 232.336C898.234 232.513 898.139 232.691 898.044 232.869C897.961 233.024 897.878 233.178 897.795 233.332C897.201 234.412 896.62 235.504 896.739 236.832H896.715ZM965.545 134.542C967.171 132.311 969.366 130.816 971.976 129.962C974.231 129.226 976.331 129.938 977.66 131.766C978.941 133.545 979.084 135.574 977.968 137.307C976.01 140.368 973.115 142.587 969.84 144.034C966.815 145.375 963.564 142.8 963.682 139.276C963.86 137.663 964.477 135.99 965.545 134.53V134.542Z" fill="#FBEDDA"/>
<path d="M575.679 342.86C586.548 336.857 597.962 332.324 610.266 330.331C612.663 329.939 614.597 328.978 616.436 327.424C620.909 323.615 625.786 320.233 629.274 315.357C629.891 314.503 630.757 313.814 631.552 313.091C635.515 309.448 640.38 309.519 643.833 313.494C646.882 316.994 650.05 320.388 653.147 323.852C654.69 325.585 656.137 327.4 658.095 328.717C662.995 332.039 667.338 336.038 671.503 340.215C673.9 342.623 676.249 345.079 678.646 347.476C681.007 349.849 683.487 350.264 686.334 348.639C687.402 348.034 688.328 347.144 689.206 346.278C689.977 345.518 690.713 345.459 691.579 345.969C692.196 346.325 692.825 346.669 693.406 347.085C701.819 352.875 710.801 357.633 719.949 362.118C721.064 362.664 722.357 363.198 723.069 364.123C726.095 368.039 730.082 368.608 734.555 367.825C735.884 365.262 737.343 362.83 733.404 360.967C732.3 360.445 731.766 358.701 731.019 357.479C725.478 348.497 719.996 339.479 714.419 330.521C711.014 325.051 707.348 319.759 703.242 314.787C701.308 312.438 699.244 310.195 696.799 308.356C693.94 306.209 691.021 304.892 687.426 306.956C684.887 308.416 682.597 307.502 680.722 305.414C679.524 304.085 678.361 302.72 677.174 301.391C672.749 296.467 668.169 291.674 663.043 287.462C660.409 285.302 657.632 283.344 654.559 281.861C648.674 279.002 643.097 279.417 638.055 283.7C635.741 285.658 633.629 287.865 631.481 290.013C628.835 292.682 626.344 295.506 623.626 298.093C615.416 305.924 605.698 310.421 594.284 310.777C591.875 310.848 590.321 311.714 588.921 313.565C581.089 323.84 574.326 334.757 568.465 346.266C569.473 345.922 570.517 345.673 571.467 345.21C572.914 344.51 574.279 343.644 575.679 342.872V342.86Z" fill="#FBEDDA"/>
<path d="M444.934 462.877C445.361 462.569 445.836 462.308 446.275 461.999C447.295 461.264 448.268 461.454 449.241 462.094C449.692 462.391 450.143 462.664 450.582 462.961C455.411 466.283 460.537 466.354 465.853 464.349C467.181 463.85 468.475 463.139 469.851 462.901C474.716 462.071 478.999 459.899 482.95 457.158C488.681 453.172 494.709 449.826 501.08 447.025C503.228 446.088 505.103 444.747 505.85 442.315C503.086 443.418 500.487 445.174 497.26 444.51C492.716 446.776 488.551 445.115 484.552 443.051C482.357 441.923 480.328 440.393 478.394 438.838C473.423 434.852 468.071 434.365 462.34 436.786C458.698 438.328 455.411 440.5 452.457 443.086C448.031 446.966 443.771 451.024 439.44 454.999C438.266 456.079 437.198 457.431 435.798 458.096C435.454 458.262 435.145 458.428 434.849 458.618C434.255 458.986 433.745 459.413 433.318 459.887C433.045 460.184 432.808 460.493 432.594 460.825C431.953 461.821 431.538 462.972 431.289 464.266C436.083 466.247 440.651 465.998 444.934 462.889V462.877Z" fill="#FBEDDA"/>
<path d="M1255.91 360.196C1258.67 364.575 1261.11 369.226 1264.37 373.189C1267.87 377.448 1271.69 381.447 1274.89 385.979C1276.19 387.842 1278.07 388.756 1280.32 389.017C1282.8 389.302 1285.26 389.741 1287.61 390.642C1287.96 390.678 1288.32 390.749 1288.67 390.726C1290.12 390.607 1290.41 390.298 1290 389.266C1286.8 381.257 1282.39 373.924 1277.31 366.983C1275.4 364.361 1272.98 362.178 1270.18 360.552C1265.23 357.681 1260.01 355.355 1254.62 353.409C1254.07 353.208 1253.53 353.101 1253.02 353.219C1252.71 353.291 1252.41 353.445 1252.13 353.718C1253.39 355.877 1254.59 358.072 1255.91 360.184V360.196Z" fill="#FBEDDA"/>
<path d="M1035.53 177.281C1034.95 176.344 1034.77 175.359 1034.59 174.386C1034.41 173.413 1034.22 172.464 1033.62 171.609C1033.59 171.764 1033.59 171.93 1033.58 172.096C1033.56 173.235 1033.78 174.41 1032.93 175.383C1033.29 176.32 1033.64 177.281 1035.52 177.281H1035.53Z" fill="#F47F36"/>
<path d="M1030.74 159.258L1030.46 159.246L1030.33 159.436L1030.56 159.46L1030.74 159.258Z" fill="#F47F36"/>
<path d="M1031.88 163.469H1031.6L1031.46 163.67L1031.7 163.694L1031.86 163.469H1031.88Z" fill="#F47F36"/>
<path d="M1032.93 167.825L1032.66 167.789L1032.5 167.979C1032.5 167.979 1032.73 168.026 1032.74 168.026L1032.93 167.813V167.825Z" fill="#F47F36"/>
</g>
</g>
<defs>
<clipPath id="clip0_1710_63416">
<rect width="1923.36" height="1302.17" fill="white"/>
</clipPath>
</defs>
</svg>
