<svg width="60" height="60" viewBox="0 0 60 60" fill="none" xmlns="http://www.w3.org/2000/svg">
<path d="M29.934 42.7556C22.986 42.7556 17.5245 39.3325 17.5001 34.963C17.4919 33.4676 18.1399 32.0217 19.3738 30.7805C21.628 28.5137 25.5475 27.1602 29.8572 27.1602C36.8037 27.1602 42.2652 30.5832 42.2896 34.9534C42.2977 36.4488 41.6505 37.8948 40.4166 39.1353C38.1625 41.402 34.2444 42.7556 29.9355 42.7556H29.934Z" fill="#B22F42"/>
<path d="M29.8554 28.0198C36.2234 28.0198 41.4049 31.1252 41.4256 34.9561C41.447 38.787 36.301 41.8923 29.9322 41.8923C23.5634 41.8923 18.3812 38.787 18.3598 34.9561C18.3384 31.1252 23.4844 28.0198 29.8554 28.0198V28.0198ZM29.8554 26.2969C25.3211 26.2969 21.1733 27.745 18.761 30.1713C17.3616 31.5781 16.6272 33.2361 16.6368 34.9657C16.6634 39.8162 22.5039 43.6153 29.9322 43.6153C34.4657 43.6153 38.6121 42.1671 41.0244 39.7408C42.4238 38.334 43.1582 36.6761 43.1486 34.9465C43.1212 30.096 37.2822 26.2969 29.8546 26.2969H29.8554Z" fill="#191A1F"/>
<path d="M37.3629 51.3543C37.3629 55.4415 34.0492 58.7552 29.9627 58.7552C25.8762 58.7552 22.5625 55.4415 22.5625 51.3543V36.6588C22.5625 32.5715 25.8762 29.2578 29.9627 29.2578C34.0492 29.2578 37.3629 32.5715 37.3629 36.6588V51.3543Z" fill="#F47F36"/>
<path d="M29.6096 30.9902H22.6113C22.581 31.2621 22.5625 31.5377 22.5625 31.8177V51.3556C22.5625 55.4429 25.8762 58.7566 29.9627 58.7566C29.9627 56.1396 29.9627 30.9902 29.9627 30.9902H29.6096Z" fill="#F47F36"/>
<path d="M29.9984 1.24414C16.1452 1.24414 4.91406 11.7807 4.91406 24.7784C4.91406 37.7761 16.1444 48.3127 29.9984 48.3127C43.8524 48.3127 55.0827 37.7761 55.0827 24.7784C55.0827 11.7807 43.8524 1.24414 29.9984 1.24414V1.24414ZM45.7409 36.2023C42.0452 39.5057 37.5183 38.9974 34.2393 37.9231C32.6545 38.0746 31.1606 38.1292 29.8743 38.1292C28.8488 38.1292 27.6925 38.0857 26.4653 37.9793C24.2251 38.9338 21.0193 39.5072 17.3081 37.7184C12.383 35.3446 8.14205 31.7169 9.76381 23.7322C9.90345 22.8101 10.1369 21.8319 10.4768 20.7931C11.2836 18.3209 13.6841 9.84128 20.7851 7.91513C23.8823 7.07506 27.2603 9.5221 28.9552 11.0079C29.6452 11.613 30.39 11.6913 30.9589 11.1712C32.5311 9.73267 35.9032 7.12974 39.0041 7.91734C45.3057 9.51841 47.899 16.0017 49.5437 21.1404C50.7901 25.034 50.5825 28.0537 49.4535 30.3914C48.5758 32.8916 47.1299 34.9611 45.7416 36.2023H45.7409Z" fill="#FBEDDA"/>
<path d="M17.3067 27.2106C24.4055 30.6322 29.6579 25.6997 29.8293 25.6945C30.0007 25.6997 39.1801 31.5572 45.7395 25.6945C47.223 24.3683 47.6516 22.0122 48.553 19.2282C50.7739 23.0938 50.6018 27.1124 49.4514 30.3899C50.5803 28.0529 50.7879 25.0325 49.5415 21.1389C47.8969 16.0002 45.3028 9.51768 39.002 7.91588C35.9018 7.12827 32.5298 9.7312 30.9568 11.1697C30.3879 11.6899 29.6431 11.6115 28.953 11.0064C27.2574 9.51989 23.8794 7.07286 20.783 7.91366C13.682 9.83981 11.2815 18.3202 10.4747 20.7916C10.1356 21.8304 9.90136 22.8086 9.76172 23.7307C9.92426 22.9298 10.1452 22.0846 10.4318 21.1928C11.8164 24.027 14.4452 25.8312 17.3067 27.2106V27.2106Z" fill="#1A3C32"/>
<path d="M26.4609 37.9796C27.6881 38.086 28.8444 38.1296 29.8699 38.1296C31.1562 38.1296 32.6502 38.0749 34.235 37.9234C31.6934 37.0908 29.901 35.9182 29.8263 35.916C29.7443 35.9182 28.5053 37.1078 26.4609 37.9796V37.9796Z" fill="#1A3C32"/>
<path d="M9.76538 23.7312C8.14436 31.7158 12.3853 35.3435 17.3097 37.7174C21.0209 39.5061 24.2274 38.9335 26.4669 37.9782C18.7342 37.3096 8.18722 34.1584 9.76464 23.7305L9.76538 23.7312Z" fill="#1A3C32"/>
<path d="M34.2383 37.9243C37.5173 38.9985 42.0449 39.5061 45.7398 36.2035C47.1281 34.9623 48.5747 32.8928 49.4517 30.3926C46.9648 35.5401 40.0034 37.3738 34.2383 37.925V37.9243Z" fill="#1A3C32"/>
<path d="M49.4534 30.3902C50.6038 27.1127 50.776 23.0941 48.555 19.2285C47.6536 22.0125 47.2244 24.3686 45.7415 25.6948C39.1821 31.5575 30.0028 25.7 29.8314 25.6948C29.66 25.7 24.4076 30.6325 17.3088 27.2109C14.4473 25.8315 11.8185 24.0273 10.4339 21.1931C10.148 22.0856 9.92705 22.9301 9.76377 23.731C8.18635 34.159 18.7333 37.3101 26.466 37.9788C28.5103 37.107 29.7494 35.9182 29.8314 35.9152C29.906 35.9174 31.6984 37.09 34.24 37.9226C40.0052 37.3715 46.9665 35.5384 49.4534 30.3902V30.3902Z" fill="#1A3C32"/>
<path d="M39.6212 24.3219C39.6212 21.9827 36.0208 18.2109 30.0222 18.2109C23.001 18.2109 20.0781 21.917 20.0781 24.3219C20.0781 30.0545 30.0702 33.3305 30.0702 33.3305C31.819 32.7121 39.6219 30.0545 39.6219 24.3219H39.6212Z" fill="#FBEDDA"/>
<path d="M35.6133 38.7016C35.385 38.59 31.1338 37.8061 31.1338 31.7676L29.3702 31.8592L28.621 31.7676C28.621 37.9657 24.8994 38.7636 24.6719 38.876C27.8038 38.5701 29.8408 36.6883 29.9361 36.6853L29.9479 36.5892L29.9597 36.6853C30.0558 36.6883 32.4821 38.3964 35.6141 38.7016H35.6133Z" fill="#191A1F"/>
<path d="M30.3233 42.0835C30.3853 44.6244 30.4312 47.5686 30.4452 50.1154C30.4496 50.7848 30.4674 51.4542 30.4814 52.1235C30.508 53.4638 30.4282 54.8004 30.3004 56.1347C30.2324 56.8026 30.1541 57.4705 30.0322 58.1369L29.9561 58.1355C29.6952 56.1362 29.6295 54.1206 29.7255 52.1095C29.7994 50.951 29.8726 49.2753 29.9228 48.0984C29.9915 46.6532 30.1068 44.5239 30.1873 43.0846L30.2487 42.082L30.3248 42.0835H30.3233Z" fill="#FBEDDA"/>
<path d="M40.396 29.4987L41.2561 29.6553C41.3277 29.6686 41.3965 29.6664 41.4615 29.6288C41.5169 29.5962 41.5693 29.5334 41.5841 29.4699C41.6137 29.3398 41.545 29.1692 41.3979 29.1426L40.5379 28.9859C40.4662 28.9726 40.3975 28.9748 40.3325 29.0125C40.2771 29.045 40.2246 29.1078 40.2099 29.1714C40.1803 29.3014 40.249 29.4721 40.396 29.4987Z" fill="#F47F36"/>
<path d="M41.251 30.3836L41.4077 30.6962C41.4247 30.7272 41.4476 30.7523 41.4764 30.7708C41.5023 30.7944 41.5325 30.8099 41.5673 30.8181C41.6027 30.8292 41.6382 30.8306 41.6737 30.8225C41.7091 30.821 41.7424 30.8107 41.7727 30.7907C41.8296 30.7538 41.8798 30.6999 41.8953 30.6319L41.9049 30.5609C41.9049 30.5129 41.8924 30.4678 41.8687 30.4265L41.7121 30.1139C41.6951 30.0829 41.6722 30.0578 41.6434 30.0393C41.6175 30.0157 41.5872 30.0001 41.5525 29.992C41.517 29.9809 41.4816 29.9795 41.4461 29.9876C41.4106 29.9891 41.3774 29.9994 41.3471 30.0194C41.2902 30.0563 41.24 30.1102 41.2244 30.1782L41.2148 30.2491C41.2148 30.2972 41.2274 30.3422 41.251 30.3836Z" fill="#F47F36"/>
<path d="M43.6692 30.2809H43.8259C43.8628 30.2824 43.8968 30.275 43.9286 30.258C43.9618 30.2469 43.9899 30.2292 44.0143 30.2026C44.0401 30.1782 44.0586 30.1501 44.0697 30.1169C44.0867 30.0851 44.0941 30.0511 44.0926 30.0142L44.083 29.9433C44.0704 29.8982 44.0475 29.8591 44.0143 29.8258L43.9603 29.7844C43.919 29.7601 43.8739 29.7482 43.8259 29.7482H43.6692C43.6323 29.7468 43.5983 29.7541 43.5665 29.7711C43.5333 29.7822 43.5052 29.7999 43.4808 29.8265C43.455 29.8509 43.4365 29.879 43.4254 29.9122C43.4084 29.944 43.4011 29.978 43.4025 30.0149L43.4121 30.0859C43.4247 30.1309 43.4476 30.1701 43.4808 30.2033L43.5348 30.2447C43.5762 30.2691 43.6212 30.2809 43.6692 30.2809Z" fill="#F47F36"/>
<path d="M43.8962 28.9434L44.2088 28.8651C44.2435 28.857 44.2738 28.8407 44.2996 28.8178C44.3285 28.7993 44.3514 28.7742 44.3683 28.7432C44.3876 28.7129 44.3986 28.6796 44.4001 28.6442C44.4082 28.6087 44.4068 28.5732 44.3957 28.5378C44.375 28.4735 44.3351 28.4114 44.273 28.3789C44.211 28.3464 44.1393 28.3338 44.0676 28.3523L43.7551 28.4306C43.7204 28.4388 43.6901 28.455 43.6642 28.4779C43.6354 28.4964 43.6125 28.5215 43.5955 28.5525C43.5763 28.5828 43.5652 28.6161 43.5637 28.6516C43.5556 28.687 43.5571 28.7225 43.5682 28.758C43.5889 28.8222 43.6288 28.8843 43.6908 28.9168C43.7529 28.9493 43.8246 28.9619 43.8962 28.9434Z" fill="#F47F36"/>
<path d="M42.5224 26.585L42.444 26.3508C42.4359 26.3161 42.4197 26.2858 42.3968 26.2599C42.3783 26.2311 42.3532 26.2082 42.3221 26.1912C42.2918 26.172 42.2586 26.1609 42.2231 26.1595C42.1877 26.1513 42.1522 26.1528 42.1167 26.1639L42.0532 26.1905C42.0133 26.2141 41.9815 26.2459 41.9579 26.2858L41.9313 26.3493C41.9187 26.3966 41.9187 26.4439 41.9313 26.4912L42.0096 26.7254C42.0177 26.7601 42.034 26.7904 42.0569 26.8163C42.0754 26.8451 42.1005 26.868 42.1315 26.885C42.1618 26.9042 42.1951 26.9153 42.2305 26.9168C42.266 26.9249 42.3015 26.9234 42.3369 26.9123L42.4005 26.8857C42.4404 26.8621 42.4721 26.8303 42.4958 26.7904L42.5224 26.7269C42.5349 26.6796 42.5349 26.6323 42.5224 26.585Z" fill="#F47F36"/>
<path d="M43.3597 25.907C43.5038 25.907 43.6257 25.7843 43.6257 25.641C43.6257 25.4976 43.5038 25.375 43.3597 25.375C43.2157 25.375 43.0938 25.4976 43.0938 25.641C43.0938 25.7843 43.2157 25.907 43.3597 25.907Z" fill="#F47F36"/>
<path d="M42.1944 32.1783C42.3732 32.5056 42.6923 32.7531 43.0514 32.8499C43.1859 32.8861 43.347 32.8048 43.3787 32.6637C43.4105 32.5226 43.3366 32.3748 43.1925 32.3364C43.1408 32.3224 43.0913 32.3054 43.0418 32.2847L43.1054 32.3113C43.0174 32.2729 42.9347 32.2248 42.8586 32.1665L42.9125 32.2079C42.8372 32.1487 42.7692 32.0815 42.7101 32.0062L42.7515 32.0601C42.7145 32.0121 42.682 31.9618 42.6532 31.9094C42.5867 31.7867 42.4072 31.7372 42.2889 31.8141C42.1707 31.8909 42.122 32.0475 42.1936 32.1783H42.1944Z" fill="#F47F36"/>
<path d="M39.4187 32.7513L39.497 33.5329C39.5044 33.6053 39.5221 33.6681 39.5753 33.7213C39.6211 33.7671 39.6972 33.8026 39.7637 33.7996C39.8302 33.7967 39.9041 33.7738 39.9521 33.7213C39.9972 33.6726 40.0371 33.6024 40.0305 33.5329L39.9521 32.7513C39.9448 32.6789 39.927 32.6161 39.8738 32.5629C39.828 32.5171 39.7519 32.4816 39.6854 32.4845C39.6189 32.4875 39.545 32.5104 39.497 32.5629C39.4519 32.6116 39.412 32.6818 39.4187 32.7513Z" fill="#F47F36"/>
<path d="M37.8099 31.2184H38.0441C38.081 31.2199 38.115 31.2125 38.1468 31.1955C38.18 31.1844 38.2081 31.1667 38.2325 31.1401C38.2583 31.1157 38.2768 31.0876 38.2879 31.0544C38.3049 31.0226 38.3123 30.9886 38.3108 30.9517L38.3012 30.8808C38.2886 30.8357 38.2657 30.7966 38.2325 30.7633L38.1785 30.7219C38.1372 30.6976 38.0921 30.6857 38.0441 30.6857H37.8099C37.7729 30.6843 37.7389 30.6916 37.7072 30.7086C37.6739 30.7197 37.6458 30.7374 37.6215 30.764C37.5956 30.7884 37.5771 30.8165 37.5661 30.8497C37.5491 30.8815 37.5417 30.9155 37.5432 30.9524L37.5528 31.0234C37.5653 31.0684 37.5882 31.1076 37.6215 31.1408L37.6754 31.1822C37.7168 31.2066 37.7618 31.2184 37.8099 31.2184Z" fill="#F47F36"/>
<path d="M39.9192 35.439H40.1534C40.1904 35.4405 40.2244 35.4331 40.2561 35.4161C40.2894 35.4051 40.3175 35.3873 40.3419 35.3607C40.3677 35.3364 40.3862 35.3083 40.3973 35.275C40.4143 35.2433 40.4216 35.2093 40.4202 35.1724L40.4106 35.1015C40.398 35.0564 40.3751 35.0172 40.3419 34.984L40.2879 34.9426C40.2465 34.9183 40.2015 34.9064 40.1534 34.9064H39.9192C39.8823 34.905 39.8483 34.9123 39.8165 34.9293C39.7833 34.9404 39.7552 34.9581 39.7308 34.9847C39.705 35.0091 39.6865 35.0372 39.6754 35.0704C39.6584 35.1022 39.6511 35.1362 39.6525 35.1731L39.6621 35.244C39.6747 35.2891 39.6976 35.3282 39.7308 35.3615L39.7848 35.4028C39.8261 35.4272 39.8712 35.439 39.9192 35.439Z" fill="#F47F36"/>
<path d="M43.9128 30.5063L44.3036 30.6629C44.3391 30.674 44.3746 30.6755 44.41 30.6673C44.4455 30.6659 44.4787 30.6555 44.509 30.6356C44.5644 30.6031 44.6169 30.5403 44.6317 30.4767C44.6472 30.4087 44.6435 30.3319 44.6051 30.2713L44.5637 30.2174C44.5305 30.1841 44.4913 30.1612 44.4462 30.1487L44.0554 29.992C44.0199 29.9809 43.9844 29.9795 43.949 29.9876C43.9135 29.9891 43.8803 29.9994 43.85 30.0194C43.7946 30.0519 43.7421 30.1147 43.7273 30.1782C43.7118 30.2462 43.7155 30.323 43.7539 30.3836L43.7953 30.4376C43.8285 30.4708 43.8677 30.4937 43.9128 30.5063Z" fill="#F47F36"/>
<path d="M46.0941 28.7195C46.2382 28.7195 46.3601 28.5968 46.3601 28.4535C46.3601 28.3101 46.2382 28.1875 46.0941 28.1875C45.95 28.1875 45.8281 28.3101 45.8281 28.4535C45.8281 28.5968 45.95 28.7195 46.0941 28.7195Z" fill="#F47F36"/>
<path d="M44.5261 25.8944L45.6986 25.5035C45.8301 25.4599 45.9306 25.3181 45.8848 25.1762C45.8419 25.0447 45.6986 24.9435 45.5575 24.99L44.3849 25.3809C44.2534 25.4245 44.1529 25.5663 44.1987 25.7082C44.2416 25.8397 44.3849 25.9409 44.5261 25.8944Z" fill="#F47F36"/>
<path d="M46.9544 27.5471H47.4236C47.4916 27.5471 47.5633 27.5176 47.612 27.4688C47.6608 27.42 47.6933 27.3469 47.6903 27.2804C47.6874 27.2139 47.6645 27.14 47.612 27.092C47.5596 27.044 47.496 27.0137 47.4236 27.0137H46.9544C46.8864 27.0137 46.8148 27.0432 46.766 27.092C46.7172 27.1408 46.6847 27.2139 46.6877 27.2804C46.6906 27.3469 46.7136 27.4208 46.766 27.4688C46.8185 27.5168 46.882 27.5471 46.9544 27.5471Z" fill="#F47F36"/>
<path d="M18.6548 30.507L19.6707 30.1945C19.8037 30.1538 19.902 30.0068 19.8569 29.8672C19.8118 29.7275 19.6722 29.6374 19.5296 29.681L18.5137 29.9935C18.3807 30.0341 18.2824 30.1812 18.3275 30.3208C18.3726 30.4605 18.5122 30.5506 18.6548 30.507Z" fill="#F47F36"/>
<path d="M18.4198 28.41L19.4379 28.2674C19.4992 28.2586 19.5672 28.1958 19.5967 28.1448C19.63 28.0879 19.644 28.0037 19.6233 27.9394C19.6026 27.8751 19.5628 27.8131 19.5007 27.7806C19.4327 27.7451 19.3707 27.7429 19.2953 27.754L18.2772 27.8966C18.2159 27.9054 18.1479 27.9682 18.1183 28.0192C18.0851 28.0761 18.071 28.1603 18.0917 28.2246C18.1124 28.2889 18.1523 28.3509 18.2144 28.3834C18.2824 28.4189 18.3444 28.4211 18.4198 28.41Z" fill="#F47F36"/>
<path d="M17.8841 25.5161H18.1966C18.2335 25.5175 18.2675 25.5102 18.2993 25.4932C18.3326 25.4821 18.3606 25.4643 18.385 25.4377C18.4109 25.4134 18.4293 25.3853 18.4404 25.352C18.4574 25.3203 18.4648 25.2863 18.4633 25.2493C18.4604 25.1806 18.4375 25.109 18.385 25.0609C18.3325 25.0129 18.269 24.9826 18.1966 24.9826H17.8841C17.8471 24.9811 17.8132 24.9885 17.7814 25.0055C17.7481 25.0166 17.7201 25.0343 17.6957 25.0609C17.6698 25.0853 17.6514 25.1134 17.6403 25.1466C17.6233 25.1784 17.6159 25.2124 17.6174 25.2493C17.6203 25.318 17.6432 25.3897 17.6957 25.4377C17.7481 25.4858 17.8117 25.5161 17.8841 25.5161Z" fill="#F47F36"/>
<path d="M18.3711 23.9922L18.9962 24.3047C19.0604 24.3372 19.1299 24.3513 19.2015 24.3313C19.2636 24.3143 19.3301 24.2663 19.3604 24.2087C19.3929 24.1466 19.4092 24.072 19.387 24.0033C19.3663 23.9397 19.3264 23.8747 19.2643 23.8444L18.6393 23.5319C18.575 23.4994 18.5056 23.4854 18.4339 23.5053C18.3719 23.5223 18.3054 23.5703 18.2751 23.628C18.2426 23.69 18.2263 23.7646 18.2485 23.8334C18.2692 23.8969 18.3091 23.9619 18.3711 23.9922Z" fill="#F47F36"/>
<path d="M15.6816 27.0661L16.2284 26.9094C16.2934 26.891 16.3532 26.8452 16.3872 26.7868C16.4212 26.7284 16.4345 26.6457 16.4138 26.5814C16.3931 26.5171 16.3532 26.455 16.2912 26.4225C16.2291 26.39 16.156 26.376 16.0858 26.3959L15.5391 26.5526C15.474 26.571 15.4142 26.6168 15.3802 26.6752C15.3462 26.7336 15.3329 26.8163 15.3536 26.8806C15.3743 26.9449 15.4142 27.007 15.4763 27.0395C15.5383 27.072 15.6115 27.086 15.6816 27.0661Z" fill="#F47F36"/>
<path d="M14.3145 25.4314L15.1701 24.7229C15.2196 24.6815 15.2484 24.5965 15.2484 24.5345C15.2484 24.4695 15.2196 24.3911 15.1701 24.3461C15.1206 24.301 15.0526 24.2648 14.9817 24.2677C14.9107 24.2707 14.8502 24.2988 14.7933 24.3461L13.9377 25.0546C13.8882 25.096 13.8594 25.181 13.8594 25.243C13.8594 25.308 13.8882 25.3863 13.9377 25.4314C13.9872 25.4765 14.0552 25.5127 14.1261 25.5097C14.197 25.5068 14.2576 25.4787 14.3145 25.4314Z" fill="#F47F36"/>
<path d="M16.0824 24.7312C16.2265 24.7312 16.3484 24.6085 16.3484 24.4652C16.3484 24.3219 16.2265 24.1992 16.0824 24.1992C15.9383 24.1992 15.8164 24.3219 15.8164 24.4652C15.8164 24.6085 15.9383 24.7312 16.0824 24.7312Z" fill="#F47F36"/>
<path d="M13.1065 29.4904L13.8099 29.2562C13.8757 29.234 13.9333 29.1949 13.9688 29.1336C14.002 29.0767 14.0161 28.9924 13.9954 28.9282C13.9525 28.7966 13.8092 28.6954 13.6681 28.742L12.9647 28.9762C12.8989 28.9984 12.8413 29.0375 12.8058 29.0988C12.7726 29.1557 12.7585 29.24 12.7792 29.3042C12.8221 29.4357 12.9654 29.537 13.1065 29.4904V29.4904Z" fill="#F47F36"/>
<path d="M14.8098 29.7753L15.0351 29.6393L14.6709 29.2751L13.9261 30.5348C13.8582 30.6494 13.8914 30.7986 13.9948 30.8784C14.0902 30.9516 14.2616 30.9619 14.3443 30.8577L14.8637 30.2031C14.9095 30.1455 14.942 30.0915 14.942 30.0147C14.942 29.9497 14.9132 29.8713 14.8637 29.8263C14.7677 29.7376 14.58 29.7095 14.4869 29.8263L13.9675 30.4809L14.3857 30.8038L15.1304 29.544C15.2649 29.3165 14.9952 29.0416 14.7662 29.1798L14.5408 29.3157C14.4219 29.3881 14.3665 29.5581 14.4455 29.68C14.5246 29.8019 14.682 29.8529 14.8098 29.7753Z" fill="#F47F36"/>
<path d="M16.0082 31.4538C16.1522 31.4538 16.2742 31.3312 16.2742 31.1879C16.2742 31.0445 16.1522 30.9219 16.0082 30.9219C15.8641 30.9219 15.7422 31.0445 15.7422 31.1879C15.7422 31.3312 15.8641 31.4538 16.0082 31.4538Z" fill="#F47F36"/>
<path d="M14.801 33.0638V33.3763C14.7995 33.4132 14.8069 33.4472 14.8239 33.479C14.835 33.5122 14.8527 33.5403 14.8793 33.5647C14.9037 33.5906 14.9317 33.609 14.965 33.6201C14.9967 33.6371 15.0307 33.6445 15.0677 33.643C15.1364 33.6401 15.208 33.6171 15.2561 33.5647C15.3041 33.5122 15.3344 33.4487 15.3344 33.3763V33.0638C15.3359 33.0268 15.3285 32.9928 15.3115 32.9611C15.3004 32.9278 15.2827 32.8998 15.2561 32.8754C15.2317 32.8495 15.2036 32.831 15.1704 32.82C15.1386 32.803 15.1046 32.7956 15.0677 32.7971C14.999 32.8 14.9273 32.8229 14.8793 32.8754C14.8313 32.9278 14.801 32.9914 14.801 33.0638Z" fill="#F47F36"/>
<path d="M17.3895 33.2157L17.7803 32.9814C17.8379 32.9467 17.8845 32.8876 17.903 32.8226C17.914 32.7871 17.9155 32.7517 17.9074 32.7162C17.9059 32.6807 17.8956 32.6475 17.8756 32.6172C17.8387 32.5603 17.7847 32.5101 17.7168 32.4945C17.6488 32.479 17.5742 32.4842 17.5114 32.5211L17.1205 32.7554C17.0629 32.7901 17.0163 32.8492 16.9979 32.9142C16.9868 32.9497 16.9853 32.9851 16.9934 33.0206C16.9949 33.0561 17.0053 33.0893 17.0252 33.1196C17.0622 33.1765 17.1161 33.2267 17.1841 33.2423C17.252 33.2578 17.3267 33.2526 17.3895 33.2157Z" fill="#F47F36"/>
<path d="M18.1958 32.6172L17.9616 33.0081C17.9261 33.0672 17.9165 33.1477 17.935 33.2135C17.952 33.2755 18 33.342 18.0576 33.3723C18.1197 33.4048 18.1943 33.4211 18.263 33.3989C18.3317 33.3767 18.3857 33.3376 18.4219 33.2763L18.6561 32.8854C18.6916 32.8263 18.7012 32.7458 18.6827 32.68C18.6657 32.618 18.6177 32.5515 18.5601 32.5212C18.498 32.4887 18.4234 32.4724 18.3546 32.4946C18.2859 32.5167 18.232 32.5559 18.1958 32.6172Z" fill="#F47F36"/>
<path d="M13.3783 26.7014C12.7488 26.131 12.0484 25.6412 11.2933 25.2518C11.1655 25.1861 11.0045 25.2186 10.9291 25.3471C10.8596 25.4661 10.8966 25.6449 11.0244 25.7114C11.7426 26.0823 12.4053 26.5374 13.0015 27.0775C13.1079 27.1743 13.2727 27.1824 13.3783 27.0775C13.4766 26.9792 13.4855 26.7982 13.3783 26.7007V26.7014Z" fill="#F47F36"/>
<path d="M12.702 23.9154L12.8586 23.837C12.8896 23.8201 12.9148 23.7972 12.9332 23.7683C12.9569 23.7425 12.9724 23.7122 12.9805 23.6775C12.9916 23.642 12.9931 23.6065 12.985 23.5711C12.9835 23.5356 12.9731 23.5024 12.9532 23.4721L12.9118 23.4182C12.8786 23.3849 12.8394 23.362 12.7943 23.3494L12.7234 23.3398C12.6754 23.3398 12.6303 23.3524 12.5889 23.376L12.4323 23.4544C12.4013 23.4713 12.3761 23.4942 12.3577 23.5231C12.334 23.5489 12.3185 23.5792 12.3104 23.6139C12.2993 23.6494 12.2978 23.6849 12.3059 23.7203C12.3074 23.7558 12.3178 23.789 12.3377 23.8193L12.3791 23.8733C12.4123 23.9065 12.4515 23.9294 12.4966 23.942L12.5675 23.9516C12.6155 23.9516 12.6606 23.939 12.702 23.9154Z" fill="#F47F36"/>
</svg>
