<svg width="60" height="60" viewBox="0 0 60 60" fill="none" xmlns="http://www.w3.org/2000/svg">
<path d="M49.7167 20.4306C49.7167 9.54302 40.8905 0.716797 30.0029 0.716797C19.1153 0.716797 10.2891 9.54302 10.2891 20.4306C10.2891 24.9271 13.651 32.3348 17.5986 39.4833C20.4356 39.3886 23.2727 39.2946 26.109 39.2C26.3386 39.1922 26.5096 39.3942 26.5195 39.6104C26.5301 39.8442 26.3224 40.0039 26.109 40.0208C24.3782 40.1579 22.6468 40.2949 20.916 40.432C20.0259 40.5026 19.1358 40.5726 18.2457 40.6432C18.2492 40.6496 18.2527 40.6559 18.2563 40.6623C19.8118 40.6679 21.3667 40.6743 22.9223 40.68C23.1526 40.6807 23.3228 40.8672 23.3327 41.0904C23.3433 41.3306 23.1342 41.4747 22.9223 41.5008C21.7764 41.6428 20.6299 41.7792 19.4819 41.9106C19.3202 41.9289 19.1584 41.9466 18.9966 41.965C19.1704 42.268 19.3449 42.5697 19.5194 42.8699C19.6536 42.8763 19.7871 42.8826 19.9213 42.889C21.1901 42.8466 22.4589 42.8049 23.7276 42.7625C26.7844 42.6608 29.8411 42.5591 32.8979 42.4574C33.1275 42.4496 33.2984 42.6516 33.3083 42.8678C33.3189 43.1016 33.1112 43.2613 32.8979 43.2782C31.1671 43.4153 29.4356 43.5523 27.7049 43.6894C26.7385 43.7657 25.7728 43.842 24.8064 43.919C26.441 43.9253 28.0757 43.9317 29.7111 43.9373C29.9414 43.938 30.1117 44.1245 30.1216 44.3478C30.1322 44.588 29.9231 44.7321 29.7111 44.7582C28.6444 44.8903 27.577 45.0175 26.5096 45.1397C26.6671 45.1969 26.7752 45.3523 26.783 45.5261C26.7936 45.7642 26.5852 45.9139 26.3725 45.9366C25.9529 45.9811 25.5326 46.0256 25.1129 46.0701L27.0316 46.1605C27.4972 46.1824 27.5862 46.8267 27.1404 46.9665C26.7257 47.0972 26.3132 47.2364 25.9049 47.3862C25.6993 47.4618 25.4944 47.5395 25.2903 47.6193C25.1963 47.656 25.1031 47.6942 25.0098 47.7316C24.9632 47.7507 24.9173 47.7698 24.8706 47.7888C24.8615 47.7924 24.8042 47.8164 24.7845 47.8249C24.5195 47.9372 24.2575 48.0566 23.9968 48.1795C24.2666 48.1929 24.5358 48.2063 24.8056 48.2184C27.589 48.3413 30.3752 48.3921 33.1607 48.3723C33.391 48.3709 33.5612 48.5617 33.5711 48.7828C33.5817 49.0209 33.3733 49.1706 33.1607 49.1932C32.3228 49.2822 31.485 49.3713 30.6465 49.4603C29.9895 49.5302 29.3325 49.5994 28.6762 49.6694C29.8666 49.7167 31.0555 49.7817 32.2437 49.8651C32.45 49.8799 32.6188 50.0113 32.6471 50.2211C32.6739 50.421 32.5503 50.6167 32.3532 50.6711C31.4737 50.9155 30.5907 51.1479 29.7048 51.3676C28.2615 51.7251 26.8105 52.0487 25.3531 52.3432C28.0397 56.4964 30.0029 59.2804 30.0029 59.2804C30.0029 59.2804 49.7167 31.319 49.7167 20.4313V20.4306ZM30.0029 34.5283C22.2173 34.5283 15.9052 28.2163 15.9052 20.4306C15.9052 12.645 22.2173 6.33297 30.0029 6.33297C37.7886 6.33297 44.1006 12.645 44.1006 20.4306C44.1006 28.2163 37.7886 34.5283 30.0029 34.5283Z" fill="#F47F36"/>
</svg>
