<svg width="60" height="60" viewBox="0 0 60 60" fill="none" xmlns="http://www.w3.org/2000/svg">
<g clip-path="url(#clip0_1708_60675)">
<path d="M29.1634 39.7637C29.2085 44.6199 29.2544 49.476 29.2994 54.3331C24.7377 54.3374 20.176 54.3426 15.6143 54.3469C15.0591 54.1703 11.7428 53.0591 10.2921 49.7177C8.9003 46.5114 9.79238 42.5586 12.5795 39.8676C18.1077 39.833 23.6351 39.7983 29.1634 39.7637V39.7637Z" fill="#FBEDDA"/>
<path d="M9.06837 49.0251C6.09941 44.0052 3.13131 38.9862 0.162346 33.9663C0.162346 33.9663 -0.625798 33.0595 0.675072 30.7263C1.97594 28.393 3.91772 24.9295 3.91772 24.9295L0.171873 22.4066L13.475 21.8809L20.344 33.9802L15.7771 31.7569C13.4785 35.6751 11.6129 38.936 10.1146 41.4728C9.65558 42.2505 8.85358 43.5981 8.67257 45.5139C8.53139 47.0045 8.82153 48.2465 9.0701 49.0251H9.06837Z" fill="#F47F36"/>
<path d="M21.8841 23.2423C17.6766 20.8164 13.4692 18.3913 9.26172 15.9654C11.5724 12.0324 13.884 8.0995 16.1948 4.16658C16.6287 3.7777 19.2685 1.48428 22.8844 1.93032C26.3531 2.35817 29.3065 5.13314 30.2107 8.89977L21.8841 23.2423V23.2423Z" fill="#FBEDDA"/>
<path d="M24.1016 1.22818C29.933 1.21778 35.7652 1.20739 41.5966 1.197C41.5966 1.197 42.7771 0.977874 44.1282 3.28341C45.4785 5.58809 47.4774 9.01868 47.4774 9.01868L51.5524 7.07171L45.2542 18.8012L31.343 18.5795L35.5764 15.7725C33.3662 11.8032 31.5041 8.5406 30.0793 5.96224C29.642 5.1715 28.8876 3.79701 27.3295 2.66849C26.117 1.79027 24.9001 1.41006 24.1024 1.22904L24.1016 1.22818Z" fill="#F47F36"/>
<path d="M40.3672 25.0172L52.8865 17.5645C55.1869 21.5035 57.4881 25.4425 59.7884 29.3815C59.9157 29.9505 60.6251 33.3741 58.4685 36.3102C56.3994 39.1267 52.5349 40.3462 48.8072 39.2939C45.9942 34.5356 43.1803 29.7764 40.3672 25.0181V25.0172Z" fill="#FBEDDA"/>
<path d="M58.4857 37.7169C55.644 42.8095 52.8015 47.9013 49.9599 52.9939C49.9599 52.9939 49.5736 54.1311 46.9025 54.1822C44.2315 54.2333 40.2622 54.2991 40.2622 54.2991L39.9686 58.8063L32.8164 47.5774L39.8118 35.5508L40.1903 40.6166C44.733 40.6296 48.4901 40.6001 51.4357 40.6166C52.339 40.6218 53.9066 40.6356 55.6535 39.8284C57.0124 39.1996 57.9392 38.324 58.4874 37.7169H58.4857Z" fill="#F47F36"/>
</g>
<defs>
<clipPath id="clip0_1708_60675">
<rect width="60" height="60" fill="white"/>
</clipPath>
</defs>
</svg>
