<svg width="25" height="25" viewBox="0 0 25 25" fill="none" xmlns="http://www.w3.org/2000/svg">
<path d="M18.5635 4.15234C16.8535 4.15234 15.8135 4.48234 15.2135 4.76234C14.4435 4.38234 13.5635 4.15234 12.5635 4.15234C11.5635 4.15234 10.6835 4.38234 9.91348 4.76234C9.31348 4.48234 8.27348 4.15234 6.56348 4.15234C3.56348 4.15234 1.56348 12.1523 1.56348 14.1523C1.56348 14.9823 2.88348 15.7423 4.70348 16.0523C5.34348 18.2923 8.36348 20.0023 12.0635 20.1523V15.8723C11.4735 15.5023 10.5635 14.8323 10.5635 14.1523C10.5635 13.1523 12.5635 13.1523 12.5635 13.1523C12.5635 13.1523 14.5635 13.1523 14.5635 14.1523C14.5635 14.8323 13.6535 15.5023 13.0635 15.8723V20.1523C16.7635 20.0023 19.7835 18.2923 20.4235 16.0523C22.2435 15.7423 23.5635 14.9823 23.5635 14.1523C23.5635 12.1523 21.5635 4.15234 18.5635 4.15234ZM4.71348 14.0223C4.21348 13.9023 3.82348 13.7623 3.56348 13.6523C3.81348 10.8823 5.76348 6.55234 6.61348 6.15234C7.15348 6.15234 7.56348 6.21234 7.93348 6.26234C5.83348 8.57234 5.00348 12.1923 4.71348 14.0223ZM9.56348 12.1523C9.29826 12.1523 9.04391 12.047 8.85637 11.8594C8.66883 11.6719 8.56348 11.4176 8.56348 11.1523C8.56348 10.6123 9.01348 10.1523 9.56348 10.1523C9.82869 10.1523 10.083 10.2577 10.2706 10.4452C10.4581 10.6328 10.5635 10.8871 10.5635 11.1523C10.5635 11.7123 10.1135 12.1523 9.56348 12.1523ZM15.5635 12.1523C15.2983 12.1523 15.0439 12.047 14.8564 11.8594C14.6688 11.6719 14.5635 11.4176 14.5635 11.1523C14.5635 10.6123 15.0135 10.1523 15.5635 10.1523C15.8287 10.1523 16.083 10.2577 16.2706 10.4452C16.4581 10.6328 16.5635 10.8871 16.5635 11.1523C16.5635 11.7123 16.1135 12.1523 15.5635 12.1523ZM20.4135 14.0223C20.1235 12.1923 19.2935 8.57234 17.1935 6.26234C17.5635 6.21234 17.9735 6.15234 18.5135 6.15234C19.3635 6.55234 21.3135 10.8823 21.5635 13.6523C21.3135 13.7623 20.9235 13.9023 20.4135 14.0223Z" fill="#EE704B"/>
</svg>
