<svg width="25" height="25" viewBox="0 0 25 25" fill="none" xmlns="http://www.w3.org/2000/svg">
<path d="M12.5635 2.15234C8.69348 2.15234 5.56348 5.28234 5.56348 9.15234C5.56348 14.4023 12.5635 22.1523 12.5635 22.1523C12.5635 22.1523 19.5635 14.4023 19.5635 9.15234C19.5635 5.28234 16.4335 2.15234 12.5635 2.15234ZM12.5635 11.6523C11.9004 11.6523 11.2646 11.389 10.7957 10.9201C10.3269 10.4513 10.0635 9.81538 10.0635 9.15234C10.0635 8.4893 10.3269 7.85342 10.7957 7.38458C11.2646 6.91574 11.9004 6.65234 12.5635 6.65234C13.2265 6.65234 13.8624 6.91574 14.3312 7.38458C14.8001 7.85342 15.0635 8.4893 15.0635 9.15234C15.0635 9.81538 14.8001 10.4513 14.3312 10.9201C13.8624 11.389 13.2265 11.6523 12.5635 11.6523Z" fill="#EE704B"/>
</svg>
