<svg width="60" height="60" viewBox="0 0 60 60" fill="none" xmlns="http://www.w3.org/2000/svg">
<path d="M22.5411 57.1741C21.7509 55.1084 20.714 53.1583 19.218 51.4616C17.404 49.4033 15.2023 47.7131 13.1145 45.9483C8.74308 42.253 4.57 37.9758 5.28805 31.8683C7.73403 31.3699 10.3587 32.5765 12.4817 33.6937C12.8768 33.9011 13.7096 33.5101 13.4662 32.988C12.1399 30.1403 9.91525 27.4566 10.5685 24.1229C11.1366 21.2253 12.935 18.8186 13.7105 15.9997C14.981 17.6899 16.5146 19.2318 18.1639 20.5179C18.559 20.8261 19.1762 20.3367 19.1852 19.9187C19.2434 17.2243 20.3443 14.8308 22.3943 13.0701C24.4682 11.2889 27.0019 10.5323 29.4667 9.47978C31.9348 8.42564 34.3316 7.16494 36.5054 5.58538C37.8407 4.61486 38.7473 3.464 39.6031 2.22461C38.7703 9.28879 36.2079 15.9152 33.4357 22.4425C32.8332 20.781 32.2356 19.1449 31.9848 17.3768C31.7356 15.6218 31.6922 13.8422 31.5053 12.0807C31.4422 11.488 30.3159 11.9586 30.3716 12.4897C30.5766 14.425 30.6093 16.3841 30.9307 18.3055C31.2463 20.1908 31.9709 21.9253 32.611 23.7147C32.6479 23.8172 32.7233 23.8721 32.816 23.8934C32.0758 25.6197 31.3282 27.3402 30.602 29.0624C28.7281 33.5085 26.9707 38.025 25.8272 42.7211C25.5338 43.9269 25.2247 45.131 24.9157 46.336C20.5943 40.289 18.1442 33.3191 16.1327 26.209C15.9654 25.618 14.8564 26.1123 14.999 26.6181C17.0991 34.0413 19.6557 41.3391 24.3067 47.5868C24.3698 47.6721 24.4583 47.7188 24.5575 47.7352C23.7616 50.8574 23.0017 53.9903 22.5394 57.1741H22.5411Z" fill="#FBEDDA"/>
<path d="M49.7401 46.2876C47.2999 48.7295 43.9907 50.0451 40.757 51.0697C34.9708 52.9034 28.2714 53.937 23.5352 57.9921C24.186 52.7559 25.7065 47.659 26.9574 42.5449C27.6287 39.7997 28.514 37.1209 29.5067 34.4799C35.6101 32.5314 42.3415 28.8616 45.6244 23.1672C45.9924 22.5278 44.8391 22.6475 44.5776 23.1C41.6029 28.2592 35.4511 31.6035 29.8911 33.4577C30.5829 31.6708 31.3198 29.9002 32.0707 28.1379C35.6692 19.6884 39.6644 11.2029 40.7374 2.00586C42.2849 7.42079 44.9145 13.9349 41.7825 18.8892C41.3398 19.59 42.3112 19.6154 42.68 19.1941C44.7268 16.8531 48.2614 16.2744 51.0918 15.1169C50.8721 19.3917 51.8557 23.923 50.0926 27.9567C48.3458 31.9536 44.5137 34.6594 41.271 37.3709C40.8956 37.6849 41.0431 38.1242 41.5284 38.0997C45.9408 37.8792 50.4377 38.5833 54.7903 37.6849C52.9894 40.4924 52.1369 43.8884 49.7385 46.2876H49.7401Z" fill="#FBEDDA"/>
</svg>
