<svg width="25" height="25" viewBox="0 0 25 25" fill="none" xmlns="http://www.w3.org/2000/svg">
<path d="M22.3836 15.5709L19.8836 19.9009C19.3936 20.7609 18.4836 21.2109 17.5636 21.1509H15.5636V23.1509L13.0636 18.6509L15.5636 14.1509V16.1509H18.3836L16.1636 12.3009L20.4936 9.80094L22.2936 12.9209C22.8136 13.6909 22.8836 14.7209 22.3836 15.5709ZM9.77363 3.21094H14.7736C15.7536 3.21094 16.6036 3.78094 17.0136 4.60094L18.0136 6.34094L19.7436 5.34094L17.1036 9.75094L11.9536 9.84094L13.6836 8.84094L12.2736 6.39094L10.0636 10.2409L5.72363 7.74094L7.52363 4.62094C7.93363 3.79094 8.78363 3.21094 9.77363 3.21094ZM5.61363 19.9109L3.11363 15.5809C2.62363 14.7309 2.69363 13.7109 3.20363 12.9409L4.20363 11.2109L2.47363 10.2109L7.61363 10.2909L10.2636 14.7109L8.53363 13.7109L7.12363 16.1509H11.5636V21.1509H7.96363C7.49514 21.1848 7.02653 21.0866 6.6111 20.8674C6.19566 20.6482 5.85008 20.3168 5.61363 19.9109Z" fill="#F47F36"/>
</svg>
