<svg width="17" height="17" viewBox="0 0 17 17" fill="none" xmlns="http://www.w3.org/2000/svg">
<path d="M15.0429 10.5408L13.3762 13.4274C13.0495 14.0008 12.4429 14.3008 11.8295 14.2608H10.4962V15.5941L8.82953 12.5941L10.4962 9.59411V10.9274H12.3762L10.8962 8.36078L13.7829 6.69411L14.9829 8.77412C15.3295 9.28745 15.3762 9.97411 15.0429 10.5408ZM6.6362 2.30078H9.96953C10.6229 2.30078 11.1895 2.68078 11.4629 3.22745L12.1295 4.38745L13.2829 3.72078L11.5229 6.66078L8.08953 6.72078L9.24286 6.05411L8.30287 4.42078L6.82953 6.98745L3.9362 5.32078L5.1362 3.24078C5.40953 2.68745 5.9762 2.30078 6.6362 2.30078ZM3.86286 13.4341L2.1962 10.5474C1.86953 9.98078 1.9162 9.30078 2.2562 8.78745L2.92286 7.63411L1.76953 6.96745L5.1962 7.02078L6.96286 9.96745L5.80953 9.30078L4.86953 10.9274H7.82953V14.2608H5.42953C5.1172 14.2834 4.8048 14.2179 4.52784 14.0718C4.25088 13.9256 4.02049 13.7047 3.86286 13.4341Z" fill="#F47F36"/>
</svg>
